<?xml version="1.0" encoding="utf-8" standalone="no"?>
<!DOCTYPE svg PUBLIC "-//W3C//DTD SVG 1.1//EN"
  "http://www.w3.org/Graphics/SVG/1.1/DTD/svg11.dtd">
<!-- Created with matplotlib (http://matplotlib.org/) -->
<svg height="288pt" version="1.1" viewBox="0 0 504 288" width="504pt" xmlns="http://www.w3.org/2000/svg" xmlns:xlink="http://www.w3.org/1999/xlink">
 <defs>
  <style type="text/css">
*{stroke-linecap:butt;stroke-linejoin:round;stroke-miterlimit:100000;}
  </style>
 </defs>
 <g id="figure_1">
  <g id="patch_1">
   <path d="M 0 288 
L 504 288 
L 504 0 
L 0 0 
z
" style="fill:#ffffff;"/>
  </g>
  <g id="axes_1">
   <g id="patch_2">
    <path d="M 63 252 
L 453.6 252 
L 453.6 28.8 
L 63 28.8 
z
" style="fill:#ffffff;"/>
   </g>
   <g id="line2d_1">
    <path clip-path="url(#pb080b9a333)" d="M 66.906 34.44239 
L 70.812 36.623661 
L 74.718 38.257653 
L 78.624 39.609659 
L 82.53 40.792034 
L 86.436 41.873442 
L 90.342 42.823369 
L 94.248 43.674822 
L 98.154 44.479206 
L 102.06 45.157366 
L 105.966 45.842213 
L 109.872 46.342213 
L 113.778 46.944588 
L 117.684 47.650773 
L 121.59 48.153459 
L 125.496 48.692863 
L 129.402 49.109552 
L 133.308 49.661305 
L 137.214 50.116978 
L 141.12 50.443732 
L 145.026 50.830965 
L 148.932 51.135024 
L 152.838 51.503978 
L 156.744 51.92152 
L 160.65 52.234054 
L 164.556 52.532612 
L 168.462 52.869268 
L 172.368 53.126101 
L 176.274 53.450419 
L 180.18 53.885624 
L 184.086 54.059834 
L 187.992 54.400375 
L 191.898 54.69003 
L 195.804 54.965001 
L 199.71 55.279211 
L 203.616 55.730391 
L 207.522 55.92588 
L 211.428 56.363256 
L 215.334 56.582662 
L 219.24 56.783551 
L 223.146 57.077649 
L 227.052 57.308847 
L 230.958 57.563219 
L 234.864 57.56576 
L 238.77 57.797941 
L 242.676 57.895226 
L 246.582 58.163901 
L 250.488 58.373963 
L 254.394 58.559053 
L 258.3 58.840628 
L 262.206 58.977936 
L 266.112 59.247681 
L 270.018 59.401615 
L 273.924 59.625949 
L 277.83 59.854667 
L 281.736 60.058599 
L 285.642 60.255815 
L 289.548 60.530372 
L 293.454 60.660426 
L 297.36 60.807916 
L 301.266 61.059519 
L 305.172 61.24712 
L 309.078 61.382036 
L 312.984 61.635327 
L 316.89 61.755714 
L 320.796 61.975589 
L 324.702 62.097471 
L 328.608 62.288323 
L 332.514 62.418379 
L 336.42 62.640178 
L 340.326 62.865437 
L 344.232 63.057016 
L 348.138 63.219451 
L 352.044 63.375808 
L 355.95 63.538912 
L 359.856 63.525206 
L 363.762 63.655103 
L 367.668 63.972182 
L 371.574 64.009145 
L 375.48 64.167571 
L 379.386 64.567125 
L 383.292 64.534681 
L 387.198 64.800504 
L 391.104 64.586951 
L 395.01 64.859717 
L 398.916 65.010257 
L 402.822 65.196067 
L 406.728 65.239421 
L 410.634 65.423973 
L 414.54 65.626348 
L 418.446 65.800221 
L 422.352 65.90468 
L 426.258 66.130172 
L 430.164 66.14848 
L 434.07 66.2787 
L 437.976 66.374794 
L 441.882 66.607028 
L 445.788 66.615091 
L 449.694 66.948924 
" style="fill:none;stroke:#0000ff;stroke-linecap:square;"/>
   </g>
   <g id="line2d_2">
    <path clip-path="url(#pb080b9a333)" d="M 66.906 39.829174 
L 70.812 44.412442 
L 74.718 47.746187 
L 78.624 50.446831 
L 82.53 52.776051 
L 86.436 54.868606 
L 90.342 56.698292 
L 94.248 58.335835 
L 98.154 59.86155 
L 102.06 61.16943 
L 105.966 62.455303 
L 109.872 63.437802 
L 113.778 64.572232 
L 117.684 65.847752 
L 121.59 66.814173 
L 125.496 67.798533 
L 129.402 68.607656 
L 133.308 69.599925 
L 137.214 70.440194 
L 141.12 71.071581 
L 145.026 71.799474 
L 148.932 72.411181 
L 152.838 73.103225 
L 156.744 73.846534 
L 160.65 74.445824 
L 164.556 75.025239 
L 168.462 75.641289 
L 172.368 76.188382 
L 176.274 76.763916 
L 180.18 77.499407 
L 184.086 77.886888 
L 187.992 78.487297 
L 191.898 79.0197 
L 195.804 79.529702 
L 199.71 80.084993 
L 203.616 80.801284 
L 207.522 81.20637 
L 211.428 81.949397 
L 215.334 82.370916 
L 219.24 82.763912 
L 223.146 83.280987 
L 227.052 83.706874 
L 230.958 84.162138 
L 234.864 84.256385 
L 238.77 84.675107 
L 242.676 84.909786 
L 246.582 85.365505 
L 250.488 85.755189 
L 254.394 86.108105 
L 258.3 86.57123 
L 262.206 86.856723 
L 266.112 87.336442 
L 270.018 87.634002 
L 273.924 87.984782 
L 277.83 88.373503 
L 281.736 88.729013 
L 285.642 89.085426 
L 289.548 89.534711 
L 293.454 89.793003 
L 297.36 90.200881 
L 301.266 90.608547 
L 305.172 90.898203 
L 309.078 91.150209 
L 312.984 91.571254 
L 316.89 91.809745 
L 320.796 92.184464 
L 324.702 92.419512 
L 328.608 92.716728 
L 332.514 92.964682 
L 336.42 93.401253 
L 340.326 93.781942 
L 344.232 94.105128 
L 348.138 94.387101 
L 352.044 94.662015 
L 355.95 94.959652 
L 359.856 95.010362 
L 363.762 95.25481 
L 367.668 95.700292 
L 371.574 95.845903 
L 375.48 96.102457 
L 379.386 96.675508 
L 383.292 96.723602 
L 387.198 97.11611 
L 391.104 96.998772 
L 395.01 97.428503 
L 398.916 97.638077 
L 402.822 97.948681 
L 406.728 98.07055 
L 410.634 98.38461 
L 414.54 98.709223 
L 418.446 99.002794 
L 422.352 99.238354 
L 426.258 99.574079 
L 430.164 99.617136 
L 434.07 99.853069 
L 437.976 100.050024 
L 441.882 100.395883 
L 445.788 100.509916 
L 449.694 100.954346 
" style="fill:none;stroke:#008000;stroke-linecap:square;"/>
   </g>
   <g id="line2d_3">
    <path clip-path="url(#pb080b9a333)" d="M 66.906 43.810154 
L 70.812 49.969478 
L 74.718 54.366596 
L 78.624 57.879543 
L 82.53 60.882899 
L 86.436 63.548715 
L 90.342 65.874892 
L 94.248 67.956715 
L 98.154 69.878127 
L 102.06 71.546795 
L 105.966 73.156349 
L 109.872 74.427503 
L 113.778 75.852011 
L 117.684 77.405242 
L 121.59 78.638075 
L 125.496 79.84793 
L 129.402 80.887606 
L 133.308 82.094959 
L 137.214 83.137144 
L 141.12 83.946196 
L 145.026 84.861693 
L 148.932 85.666121 
L 152.838 86.535382 
L 156.744 87.434676 
L 160.65 88.199039 
L 164.556 88.943926 
L 168.462 89.704947 
L 172.368 90.448739 
L 176.274 91.144022 
L 180.18 91.99988 
L 184.086 92.538711 
L 187.992 93.261199 
L 191.898 93.921594 
L 195.804 94.558234 
L 199.71 95.228152 
L 203.616 96.021092 
L 207.522 96.562777 
L 211.428 97.434015 
L 215.334 97.97286 
L 219.24 98.480915 
L 223.146 99.103465 
L 227.052 99.633302 
L 230.958 100.188648 
L 234.864 100.3806 
L 238.77 100.894011 
L 242.676 101.232297 
L 246.582 101.766527 
L 250.488 102.253652 
L 254.394 102.702724 
L 258.3 103.232973 
L 262.206 103.615216 
L 266.112 104.198057 
L 270.018 104.579966 
L 273.924 104.965167 
L 277.83 105.422369 
L 281.736 105.848524 
L 285.642 106.286701 
L 289.548 106.800237 
L 293.454 107.137111 
L 297.36 107.755955 
L 301.266 108.218062 
L 305.172 108.533373 
L 309.078 108.850051 
L 312.984 109.337661 
L 316.89 109.648222 
L 320.796 110.090555 
L 324.702 110.391826 
L 328.608 110.718422 
L 332.514 111.034046 
L 336.42 111.600373 
L 340.326 112.047217 
L 344.232 112.426144 
L 348.138 112.76373 
L 352.044 113.095846 
L 355.95 113.464474 
L 359.856 113.588122 
L 363.762 113.896796 
L 367.668 114.341825 
L 371.574 114.58468 
L 375.48 114.876392 
L 379.386 115.462142 
L 383.292 115.606883 
L 387.198 116.019674 
L 391.104 116.09134 
L 395.01 116.569059 
L 398.916 116.776705 
L 402.822 117.138807 
L 406.728 117.32372 
L 410.634 117.694662 
L 414.54 118.061332 
L 418.446 118.40623 
L 422.352 118.733519 
L 426.258 119.089592 
L 430.164 119.150523 
L 434.07 119.441436 
L 437.976 119.702393 
L 441.882 120.069583 
L 445.788 120.288839 
L 449.694 120.710211 
" style="fill:none;stroke:#ff0000;stroke-linecap:square;"/>
   </g>
   <g id="line2d_4">
    <path clip-path="url(#pb080b9a333)" d="M 66.906 51.540312 
L 70.812 60.32964 
L 74.718 66.397466 
L 78.624 71.127564 
L 82.53 75.113286 
L 86.436 78.57546 
L 90.342 81.592548 
L 94.248 84.298104 
L 98.154 86.753066 
L 102.06 88.942848 
L 105.966 90.980461 
L 109.872 92.694309 
L 113.778 94.512037 
L 117.684 96.378458 
L 121.59 98.001669 
L 125.496 99.48719 
L 129.402 100.87476 
L 133.308 102.330154 
L 137.214 103.635884 
L 141.12 104.711339 
L 145.026 105.889112 
L 148.932 107.005545 
L 152.838 108.121444 
L 156.744 109.196992 
L 160.65 110.205574 
L 164.556 111.201779 
L 168.462 112.150338 
L 172.368 113.235531 
L 176.274 114.065807 
L 180.18 115.011763 
L 184.086 115.822445 
L 187.992 116.679781 
L 191.898 117.510216 
L 195.804 118.320052 
L 199.71 119.119991 
L 203.616 119.903138 
L 207.522 120.672804 
L 211.428 121.657293 
L 215.334 122.371335 
L 219.24 123.056711 
L 223.146 123.798818 
L 227.052 124.469394 
L 230.958 125.147978 
L 234.864 125.555212 
L 238.77 126.188105 
L 242.676 126.718001 
L 246.582 127.321544 
L 250.488 127.942623 
L 254.394 128.532336 
L 258.3 129.102341 
L 262.206 129.644561 
L 266.112 130.350739 
L 270.018 130.858794 
L 273.924 131.234464 
L 277.83 131.755131 
L 281.736 132.258793 
L 285.642 132.801035 
L 289.548 133.352351 
L 293.454 133.810926 
L 297.36 134.830508 
L 301.266 135.316705 
L 305.172 135.618213 
L 309.078 136.024249 
L 312.984 136.562045 
L 316.89 136.982803 
L 320.796 137.489617 
L 324.702 137.887759 
L 328.608 138.208022 
L 332.514 138.620407 
L 336.42 139.381749 
L 340.326 139.887524 
L 344.232 140.315477 
L 348.138 140.712165 
L 352.044 141.108787 
L 355.95 141.568274 
L 359.856 141.849568 
L 363.762 142.246346 
L 367.668 142.577996 
L 371.574 143.010238 
L 375.48 143.31902 
L 379.386 143.791417 
L 383.292 144.146971 
L 387.198 144.508945 
L 391.104 145.046361 
L 395.01 145.525998 
L 398.916 145.676377 
L 402.822 146.078965 
L 406.728 146.378053 
L 410.634 146.800589 
L 414.54 147.18221 
L 418.446 147.570962 
L 422.352 148.048393 
L 426.258 148.367001 
L 430.164 148.457775 
L 434.07 148.814646 
L 437.976 149.171505 
L 441.882 149.500985 
L 445.788 149.929335 
L 449.694 150.188599 
" style="fill:none;stroke:#00bfbf;stroke-linecap:square;"/>
   </g>
   <g id="line2d_5">
    <path clip-path="url(#pb080b9a333)" d="M 66.906 59.984901 
L 70.812 71.047075 
L 74.718 78.435687 
L 78.624 84.060555 
L 82.53 88.741521 
L 86.436 92.721508 
L 90.342 96.197241 
L 94.248 99.329266 
L 98.154 102.123095 
L 102.06 104.693619 
L 105.966 106.996277 
L 109.872 109.067346 
L 113.778 111.14367 
L 117.684 113.137139 
L 121.59 115.056311 
L 125.496 116.688447 
L 129.402 118.35155 
L 133.308 119.919958 
L 137.214 121.390024 
L 141.12 122.674431 
L 145.026 124.037202 
L 148.932 125.422388 
L 152.838 126.710304 
L 156.744 127.861713 
L 160.65 129.056751 
L 164.556 130.25132 
L 168.462 131.313348 
L 172.368 132.71112 
L 176.274 133.597759 
L 180.18 134.517471 
L 184.086 135.583187 
L 187.992 136.492379 
L 191.898 137.428843 
L 195.804 138.352066 
L 199.71 139.206023 
L 203.616 139.852044 
L 207.522 140.816348 
L 211.428 141.803363 
L 215.334 142.646562 
L 219.24 143.467757 
L 223.146 144.257632 
L 227.052 145.015431 
L 230.958 145.755881 
L 234.864 146.390807 
L 238.77 147.086272 
L 242.676 147.791756 
L 246.582 148.393807 
L 250.488 149.09734 
L 254.394 149.782816 
L 258.3 150.316672 
L 262.206 150.986816 
L 266.112 151.746001 
L 270.018 152.341249 
L 273.924 152.645775 
L 277.83 153.168971 
L 281.736 153.696047 
L 285.642 154.290047 
L 289.548 154.805668 
L 293.454 155.350955 
L 297.36 156.729425 
L 301.266 157.17054 
L 305.172 157.407518 
L 309.078 157.864868 
L 312.984 158.383468 
L 316.89 158.879116 
L 320.796 159.38928 
L 324.702 159.848193 
L 328.608 160.111178 
L 332.514 160.581528 
L 336.42 161.469371 
L 340.326 161.970462 
L 344.232 162.393367 
L 348.138 162.802206 
L 352.044 163.217495 
L 355.95 163.718173 
L 359.856 164.149833 
L 363.762 164.593228 
L 367.668 164.73505 
L 371.574 165.331579 
L 375.48 165.613457 
L 379.386 165.876816 
L 383.292 166.432106 
L 387.198 166.677836 
L 391.104 167.692887 
L 395.01 168.099602 
L 398.916 168.157897 
L 402.822 168.546614 
L 406.728 168.935533 
L 410.634 169.353904 
L 414.54 169.694241 
L 418.446 170.07488 
L 422.352 170.655419 
L 426.258 170.880922 
L 430.164 170.992684 
L 434.07 171.371787 
L 437.976 171.78555 
L 441.882 172.020588 
L 445.788 172.625567 
L 449.694 172.657712 
" style="fill:none;stroke:#bf00bf;stroke-linecap:square;"/>
   </g>
   <g id="line2d_6">
    <path clip-path="url(#pb080b9a333)" d="M 66.906 71.465008 
L 70.812 84.702606 
L 74.718 93.206245 
L 78.624 99.504898 
L 82.53 104.685087 
L 86.436 108.974798 
L 90.342 112.752081 
L 94.248 116.190998 
L 98.154 119.192719 
L 102.06 122.079542 
L 105.966 124.537759 
L 109.872 126.95163 
L 113.778 129.204062 
L 117.684 131.168704 
L 121.59 133.346462 
L 125.496 135.028062 
L 129.402 136.943822 
L 133.308 138.516023 
L 137.214 140.082485 
L 141.12 141.552391 
L 145.026 143.053302 
L 148.932 144.701929 
L 152.838 146.11259 
L 156.744 147.253725 
L 160.65 148.601452 
L 164.556 149.964943 
L 168.462 151.081025 
L 172.368 152.792489 
L 176.274 153.664483 
L 180.18 154.444408 
L 184.086 155.768201 
L 187.992 156.653129 
L 191.898 157.641096 
L 195.804 158.627106 
L 199.71 159.465349 
L 203.616 159.846677 
L 207.522 160.983502 
L 211.428 161.86915 
L 215.334 162.803373 
L 219.24 163.726076 
L 223.146 164.498019 
L 227.052 165.29542 
L 230.958 166.042084 
L 234.864 166.92027 
L 238.77 167.626 
L 242.676 168.493744 
L 246.582 169.028264 
L 250.488 169.766717 
L 254.394 170.506362 
L 258.3 170.934253 
L 262.206 171.702239 
L 266.112 172.44963 
L 270.018 173.09553 
L 273.924 173.274021 
L 277.83 173.744886 
L 281.736 174.246621 
L 285.642 174.844877 
L 289.548 175.260547 
L 293.454 175.859881 
L 297.36 177.550314 
L 301.266 177.88702 
L 305.172 178.017367 
L 309.078 178.491283 
L 312.984 178.931512 
L 316.89 179.468942 
L 320.796 179.930091 
L 324.702 180.416564 
L 328.608 180.581573 
L 332.514 181.074711 
L 336.42 182.025666 
L 340.326 182.46924 
L 344.232 182.842551 
L 348.138 183.224225 
L 352.044 183.619597 
L 355.95 184.118654 
L 359.856 184.686026 
L 363.762 185.139359 
L 367.668 185.040985 
L 371.574 185.771553 
L 375.48 185.992947 
L 379.386 185.984367 
L 383.292 186.717956 
L 387.198 186.803565 
L 391.104 188.272089 
L 395.01 188.552241 
L 398.916 188.498057 
L 402.822 188.831584 
L 406.728 189.284551 
L 410.634 189.655892 
L 414.54 189.914935 
L 418.446 190.248365 
L 422.352 190.887705 
L 426.258 190.985684 
L 430.164 191.109999 
L 434.07 191.476511 
L 437.976 191.912969 
L 441.882 192.019386 
L 445.788 192.761077 
L 449.694 192.538288 
" style="fill:none;stroke:#bfbf00;stroke-linecap:square;"/>
   </g>
   <g id="patch_3">
    <path d="M 63 28.8 
L 453.6 28.8 
" style="fill:none;stroke:#000000;stroke-linecap:square;stroke-linejoin:miter;"/>
   </g>
   <g id="patch_4">
    <path d="M 453.6 252 
L 453.6 28.8 
" style="fill:none;stroke:#000000;stroke-linecap:square;stroke-linejoin:miter;"/>
   </g>
   <g id="patch_5">
    <path d="M 63 252 
L 453.6 252 
" style="fill:none;stroke:#000000;stroke-linecap:square;stroke-linejoin:miter;"/>
   </g>
   <g id="patch_6">
    <path d="M 63 252 
L 63 28.8 
" style="fill:none;stroke:#000000;stroke-linecap:square;stroke-linejoin:miter;"/>
   </g>
   <g id="matplotlib.axis_1">
    <g id="xtick_1">
     <g id="line2d_7">
      <defs>
       <path d="M 0 0 
L 0 -4 
" id="me63d044b9c" style="stroke:#000000;stroke-width:0.5;"/>
      </defs>
      <g>
       <use style="stroke:#000000;stroke-width:0.5;" x="63.0" xlink:href="#me63d044b9c" y="252.0"/>
      </g>
     </g>
     <g id="line2d_8">
      <defs>
       <path d="M 0 0 
L 0 4 
" id="md33dba6064" style="stroke:#000000;stroke-width:0.5;"/>
      </defs>
      <g>
       <use style="stroke:#000000;stroke-width:0.5;" x="63.0" xlink:href="#md33dba6064" y="28.8"/>
      </g>
     </g>
     <g id="text_1">
      <!-- 0 -->
      <defs>
       <path d="M 31.78125 66.40625 
Q 24.171875 66.40625 20.328125 58.90625 
Q 16.5 51.421875 16.5 36.375 
Q 16.5 21.390625 20.328125 13.890625 
Q 24.171875 6.390625 31.78125 6.390625 
Q 39.453125 6.390625 43.28125 13.890625 
Q 47.125 21.390625 47.125 36.375 
Q 47.125 51.421875 43.28125 58.90625 
Q 39.453125 66.40625 31.78125 66.40625 
M 31.78125 74.21875 
Q 44.046875 74.21875 50.515625 64.515625 
Q 56.984375 54.828125 56.984375 36.375 
Q 56.984375 17.96875 50.515625 8.265625 
Q 44.046875 -1.421875 31.78125 -1.421875 
Q 19.53125 -1.421875 13.0625 8.265625 
Q 6.59375 17.96875 6.59375 36.375 
Q 6.59375 54.828125 13.0625 64.515625 
Q 19.53125 74.21875 31.78125 74.21875 
" id="BitstreamVeraSans-Roman-30"/>
      </defs>
      <g transform="translate(59.81875 263.5984375)scale(0.1 -0.1)">
       <use xlink:href="#BitstreamVeraSans-Roman-30"/>
      </g>
     </g>
    </g>
    <g id="xtick_2">
     <g id="line2d_9">
      <g>
       <use style="stroke:#000000;stroke-width:0.5;" x="141.12" xlink:href="#me63d044b9c" y="252.0"/>
      </g>
     </g>
     <g id="line2d_10">
      <g>
       <use style="stroke:#000000;stroke-width:0.5;" x="141.12" xlink:href="#md33dba6064" y="28.8"/>
      </g>
     </g>
     <g id="text_2">
      <!-- 20 -->
      <defs>
       <path d="M 19.1875 8.296875 
L 53.609375 8.296875 
L 53.609375 0 
L 7.328125 0 
L 7.328125 8.296875 
Q 12.9375 14.109375 22.625 23.890625 
Q 32.328125 33.6875 34.8125 36.53125 
Q 39.546875 41.84375 41.421875 45.53125 
Q 43.3125 49.21875 43.3125 52.78125 
Q 43.3125 58.59375 39.234375 62.25 
Q 35.15625 65.921875 28.609375 65.921875 
Q 23.96875 65.921875 18.8125 64.3125 
Q 13.671875 62.703125 7.8125 59.421875 
L 7.8125 69.390625 
Q 13.765625 71.78125 18.9375 73 
Q 24.125 74.21875 28.421875 74.21875 
Q 39.75 74.21875 46.484375 68.546875 
Q 53.21875 62.890625 53.21875 53.421875 
Q 53.21875 48.921875 51.53125 44.890625 
Q 49.859375 40.875 45.40625 35.40625 
Q 44.1875 33.984375 37.640625 27.21875 
Q 31.109375 20.453125 19.1875 8.296875 
" id="BitstreamVeraSans-Roman-32"/>
      </defs>
      <g transform="translate(134.7575 263.5984375)scale(0.1 -0.1)">
       <use xlink:href="#BitstreamVeraSans-Roman-32"/>
       <use x="63.623046875" xlink:href="#BitstreamVeraSans-Roman-30"/>
      </g>
     </g>
    </g>
    <g id="xtick_3">
     <g id="line2d_11">
      <g>
       <use style="stroke:#000000;stroke-width:0.5;" x="219.24" xlink:href="#me63d044b9c" y="252.0"/>
      </g>
     </g>
     <g id="line2d_12">
      <g>
       <use style="stroke:#000000;stroke-width:0.5;" x="219.24" xlink:href="#md33dba6064" y="28.8"/>
      </g>
     </g>
     <g id="text_3">
      <!-- 40 -->
      <defs>
       <path d="M 37.796875 64.3125 
L 12.890625 25.390625 
L 37.796875 25.390625 
z
M 35.203125 72.90625 
L 47.609375 72.90625 
L 47.609375 25.390625 
L 58.015625 25.390625 
L 58.015625 17.1875 
L 47.609375 17.1875 
L 47.609375 0 
L 37.796875 0 
L 37.796875 17.1875 
L 4.890625 17.1875 
L 4.890625 26.703125 
z
" id="BitstreamVeraSans-Roman-34"/>
      </defs>
      <g transform="translate(212.8775 263.5984375)scale(0.1 -0.1)">
       <use xlink:href="#BitstreamVeraSans-Roman-34"/>
       <use x="63.623046875" xlink:href="#BitstreamVeraSans-Roman-30"/>
      </g>
     </g>
    </g>
    <g id="xtick_4">
     <g id="line2d_13">
      <g>
       <use style="stroke:#000000;stroke-width:0.5;" x="297.36" xlink:href="#me63d044b9c" y="252.0"/>
      </g>
     </g>
     <g id="line2d_14">
      <g>
       <use style="stroke:#000000;stroke-width:0.5;" x="297.36" xlink:href="#md33dba6064" y="28.8"/>
      </g>
     </g>
     <g id="text_4">
      <!-- 60 -->
      <defs>
       <path d="M 33.015625 40.375 
Q 26.375 40.375 22.484375 35.828125 
Q 18.609375 31.296875 18.609375 23.390625 
Q 18.609375 15.53125 22.484375 10.953125 
Q 26.375 6.390625 33.015625 6.390625 
Q 39.65625 6.390625 43.53125 10.953125 
Q 47.40625 15.53125 47.40625 23.390625 
Q 47.40625 31.296875 43.53125 35.828125 
Q 39.65625 40.375 33.015625 40.375 
M 52.59375 71.296875 
L 52.59375 62.3125 
Q 48.875 64.0625 45.09375 64.984375 
Q 41.3125 65.921875 37.59375 65.921875 
Q 27.828125 65.921875 22.671875 59.328125 
Q 17.53125 52.734375 16.796875 39.40625 
Q 19.671875 43.65625 24.015625 45.921875 
Q 28.375 48.1875 33.59375 48.1875 
Q 44.578125 48.1875 50.953125 41.515625 
Q 57.328125 34.859375 57.328125 23.390625 
Q 57.328125 12.15625 50.6875 5.359375 
Q 44.046875 -1.421875 33.015625 -1.421875 
Q 20.359375 -1.421875 13.671875 8.265625 
Q 6.984375 17.96875 6.984375 36.375 
Q 6.984375 53.65625 15.1875 63.9375 
Q 23.390625 74.21875 37.203125 74.21875 
Q 40.921875 74.21875 44.703125 73.484375 
Q 48.484375 72.75 52.59375 71.296875 
" id="BitstreamVeraSans-Roman-36"/>
      </defs>
      <g transform="translate(290.9975 263.5984375)scale(0.1 -0.1)">
       <use xlink:href="#BitstreamVeraSans-Roman-36"/>
       <use x="63.623046875" xlink:href="#BitstreamVeraSans-Roman-30"/>
      </g>
     </g>
    </g>
    <g id="xtick_5">
     <g id="line2d_15">
      <g>
       <use style="stroke:#000000;stroke-width:0.5;" x="375.48" xlink:href="#me63d044b9c" y="252.0"/>
      </g>
     </g>
     <g id="line2d_16">
      <g>
       <use style="stroke:#000000;stroke-width:0.5;" x="375.48" xlink:href="#md33dba6064" y="28.8"/>
      </g>
     </g>
     <g id="text_5">
      <!-- 80 -->
      <defs>
       <path d="M 31.78125 34.625 
Q 24.75 34.625 20.71875 30.859375 
Q 16.703125 27.09375 16.703125 20.515625 
Q 16.703125 13.921875 20.71875 10.15625 
Q 24.75 6.390625 31.78125 6.390625 
Q 38.8125 6.390625 42.859375 10.171875 
Q 46.921875 13.96875 46.921875 20.515625 
Q 46.921875 27.09375 42.890625 30.859375 
Q 38.875 34.625 31.78125 34.625 
M 21.921875 38.8125 
Q 15.578125 40.375 12.03125 44.71875 
Q 8.5 49.078125 8.5 55.328125 
Q 8.5 64.0625 14.71875 69.140625 
Q 20.953125 74.21875 31.78125 74.21875 
Q 42.671875 74.21875 48.875 69.140625 
Q 55.078125 64.0625 55.078125 55.328125 
Q 55.078125 49.078125 51.53125 44.71875 
Q 48 40.375 41.703125 38.8125 
Q 48.828125 37.15625 52.796875 32.3125 
Q 56.78125 27.484375 56.78125 20.515625 
Q 56.78125 9.90625 50.3125 4.234375 
Q 43.84375 -1.421875 31.78125 -1.421875 
Q 19.734375 -1.421875 13.25 4.234375 
Q 6.78125 9.90625 6.78125 20.515625 
Q 6.78125 27.484375 10.78125 32.3125 
Q 14.796875 37.15625 21.921875 38.8125 
M 18.3125 54.390625 
Q 18.3125 48.734375 21.84375 45.5625 
Q 25.390625 42.390625 31.78125 42.390625 
Q 38.140625 42.390625 41.71875 45.5625 
Q 45.3125 48.734375 45.3125 54.390625 
Q 45.3125 60.0625 41.71875 63.234375 
Q 38.140625 66.40625 31.78125 66.40625 
Q 25.390625 66.40625 21.84375 63.234375 
Q 18.3125 60.0625 18.3125 54.390625 
" id="BitstreamVeraSans-Roman-38"/>
      </defs>
      <g transform="translate(369.1175 263.5984375)scale(0.1 -0.1)">
       <use xlink:href="#BitstreamVeraSans-Roman-38"/>
       <use x="63.623046875" xlink:href="#BitstreamVeraSans-Roman-30"/>
      </g>
     </g>
    </g>
    <g id="xtick_6">
     <g id="line2d_17">
      <g>
       <use style="stroke:#000000;stroke-width:0.5;" x="453.6" xlink:href="#me63d044b9c" y="252.0"/>
      </g>
     </g>
     <g id="line2d_18">
      <g>
       <use style="stroke:#000000;stroke-width:0.5;" x="453.6" xlink:href="#md33dba6064" y="28.8"/>
      </g>
     </g>
     <g id="text_6">
      <!-- 100 -->
      <defs>
       <path d="M 12.40625 8.296875 
L 28.515625 8.296875 
L 28.515625 63.921875 
L 10.984375 60.40625 
L 10.984375 69.390625 
L 28.421875 72.90625 
L 38.28125 72.90625 
L 38.28125 8.296875 
L 54.390625 8.296875 
L 54.390625 0 
L 12.40625 0 
z
" id="BitstreamVeraSans-Roman-31"/>
      </defs>
      <g transform="translate(444.05625 263.5984375)scale(0.1 -0.1)">
       <use xlink:href="#BitstreamVeraSans-Roman-31"/>
       <use x="63.623046875" xlink:href="#BitstreamVeraSans-Roman-30"/>
       <use x="127.24609375" xlink:href="#BitstreamVeraSans-Roman-30"/>
      </g>
     </g>
    </g>
    <g id="text_7">
     <!-- Exposure time (ms) -->
     <defs>
      <path id="BitstreamVeraSans-Roman-20"/>
      <path d="M 8.015625 75.875 
L 15.828125 75.875 
Q 23.140625 64.359375 26.78125 53.3125 
Q 30.421875 42.28125 30.421875 31.390625 
Q 30.421875 20.453125 26.78125 9.375 
Q 23.140625 -1.703125 15.828125 -13.1875 
L 8.015625 -13.1875 
Q 14.5 -2 17.703125 9.0625 
Q 20.90625 20.125 20.90625 31.390625 
Q 20.90625 42.671875 17.703125 53.65625 
Q 14.5 64.65625 8.015625 75.875 
" id="BitstreamVeraSans-Roman-29"/>
      <path d="M 52 44.1875 
Q 55.375 50.25 60.0625 53.125 
Q 64.75 56 71.09375 56 
Q 79.640625 56 84.28125 50.015625 
Q 88.921875 44.046875 88.921875 33.015625 
L 88.921875 0 
L 79.890625 0 
L 79.890625 32.71875 
Q 79.890625 40.578125 77.09375 44.375 
Q 74.3125 48.1875 68.609375 48.1875 
Q 61.625 48.1875 57.5625 43.546875 
Q 53.515625 38.921875 53.515625 30.90625 
L 53.515625 0 
L 44.484375 0 
L 44.484375 32.71875 
Q 44.484375 40.625 41.703125 44.40625 
Q 38.921875 48.1875 33.109375 48.1875 
Q 26.21875 48.1875 22.15625 43.53125 
Q 18.109375 38.875 18.109375 30.90625 
L 18.109375 0 
L 9.078125 0 
L 9.078125 54.6875 
L 18.109375 54.6875 
L 18.109375 46.1875 
Q 21.1875 51.21875 25.484375 53.609375 
Q 29.78125 56 35.6875 56 
Q 41.65625 56 45.828125 52.96875 
Q 50 49.953125 52 44.1875 
" id="BitstreamVeraSans-Roman-6d"/>
      <path d="M 30.609375 48.390625 
Q 23.390625 48.390625 19.1875 42.75 
Q 14.984375 37.109375 14.984375 27.296875 
Q 14.984375 17.484375 19.15625 11.84375 
Q 23.34375 6.203125 30.609375 6.203125 
Q 37.796875 6.203125 41.984375 11.859375 
Q 46.1875 17.53125 46.1875 27.296875 
Q 46.1875 37.015625 41.984375 42.703125 
Q 37.796875 48.390625 30.609375 48.390625 
M 30.609375 56 
Q 42.328125 56 49.015625 48.375 
Q 55.71875 40.765625 55.71875 27.296875 
Q 55.71875 13.875 49.015625 6.21875 
Q 42.328125 -1.421875 30.609375 -1.421875 
Q 18.84375 -1.421875 12.171875 6.21875 
Q 5.515625 13.875 5.515625 27.296875 
Q 5.515625 40.765625 12.171875 48.375 
Q 18.84375 56 30.609375 56 
" id="BitstreamVeraSans-Roman-6f"/>
      <path d="M 9.8125 72.90625 
L 55.90625 72.90625 
L 55.90625 64.59375 
L 19.671875 64.59375 
L 19.671875 43.015625 
L 54.390625 43.015625 
L 54.390625 34.71875 
L 19.671875 34.71875 
L 19.671875 8.296875 
L 56.78125 8.296875 
L 56.78125 0 
L 9.8125 0 
z
" id="BitstreamVeraSans-Roman-45"/>
      <path d="M 9.421875 54.6875 
L 18.40625 54.6875 
L 18.40625 0 
L 9.421875 0 
z
M 9.421875 75.984375 
L 18.40625 75.984375 
L 18.40625 64.59375 
L 9.421875 64.59375 
z
" id="BitstreamVeraSans-Roman-69"/>
      <path d="M 54.890625 54.6875 
L 35.109375 28.078125 
L 55.90625 0 
L 45.3125 0 
L 29.390625 21.484375 
L 13.484375 0 
L 2.875 0 
L 24.125 28.609375 
L 4.6875 54.6875 
L 15.28125 54.6875 
L 29.78125 35.203125 
L 44.28125 54.6875 
z
" id="BitstreamVeraSans-Roman-78"/>
      <path d="M 31 75.875 
Q 24.46875 64.65625 21.28125 53.65625 
Q 18.109375 42.671875 18.109375 31.390625 
Q 18.109375 20.125 21.3125 9.0625 
Q 24.515625 -2 31 -13.1875 
L 23.1875 -13.1875 
Q 15.875 -1.703125 12.234375 9.375 
Q 8.59375 20.453125 8.59375 31.390625 
Q 8.59375 42.28125 12.203125 53.3125 
Q 15.828125 64.359375 23.1875 75.875 
z
" id="BitstreamVeraSans-Roman-28"/>
      <path d="M 56.203125 29.59375 
L 56.203125 25.203125 
L 14.890625 25.203125 
Q 15.484375 15.921875 20.484375 11.0625 
Q 25.484375 6.203125 34.421875 6.203125 
Q 39.59375 6.203125 44.453125 7.46875 
Q 49.3125 8.734375 54.109375 11.28125 
L 54.109375 2.78125 
Q 49.265625 0.734375 44.1875 -0.34375 
Q 39.109375 -1.421875 33.890625 -1.421875 
Q 20.796875 -1.421875 13.15625 6.1875 
Q 5.515625 13.8125 5.515625 26.8125 
Q 5.515625 40.234375 12.765625 48.109375 
Q 20.015625 56 32.328125 56 
Q 43.359375 56 49.78125 48.890625 
Q 56.203125 41.796875 56.203125 29.59375 
M 47.21875 32.234375 
Q 47.125 39.59375 43.09375 43.984375 
Q 39.0625 48.390625 32.421875 48.390625 
Q 24.90625 48.390625 20.390625 44.140625 
Q 15.875 39.890625 15.1875 32.171875 
z
" id="BitstreamVeraSans-Roman-65"/>
      <path d="M 18.3125 70.21875 
L 18.3125 54.6875 
L 36.8125 54.6875 
L 36.8125 47.703125 
L 18.3125 47.703125 
L 18.3125 18.015625 
Q 18.3125 11.328125 20.140625 9.421875 
Q 21.96875 7.515625 27.59375 7.515625 
L 36.8125 7.515625 
L 36.8125 0 
L 27.59375 0 
Q 17.1875 0 13.234375 3.875 
Q 9.28125 7.765625 9.28125 18.015625 
L 9.28125 47.703125 
L 2.6875 47.703125 
L 2.6875 54.6875 
L 9.28125 54.6875 
L 9.28125 70.21875 
z
" id="BitstreamVeraSans-Roman-74"/>
      <path d="M 8.5 21.578125 
L 8.5 54.6875 
L 17.484375 54.6875 
L 17.484375 21.921875 
Q 17.484375 14.15625 20.5 10.265625 
Q 23.53125 6.390625 29.59375 6.390625 
Q 36.859375 6.390625 41.078125 11.03125 
Q 45.3125 15.671875 45.3125 23.6875 
L 45.3125 54.6875 
L 54.296875 54.6875 
L 54.296875 0 
L 45.3125 0 
L 45.3125 8.40625 
Q 42.046875 3.421875 37.71875 1 
Q 33.40625 -1.421875 27.6875 -1.421875 
Q 18.265625 -1.421875 13.375 4.4375 
Q 8.5 10.296875 8.5 21.578125 
" id="BitstreamVeraSans-Roman-75"/>
      <path d="M 41.109375 46.296875 
Q 39.59375 47.171875 37.8125 47.578125 
Q 36.03125 48 33.890625 48 
Q 26.265625 48 22.1875 43.046875 
Q 18.109375 38.09375 18.109375 28.8125 
L 18.109375 0 
L 9.078125 0 
L 9.078125 54.6875 
L 18.109375 54.6875 
L 18.109375 46.1875 
Q 20.953125 51.171875 25.484375 53.578125 
Q 30.03125 56 36.53125 56 
Q 37.453125 56 38.578125 55.875 
Q 39.703125 55.765625 41.0625 55.515625 
z
" id="BitstreamVeraSans-Roman-72"/>
      <path d="M 44.28125 53.078125 
L 44.28125 44.578125 
Q 40.484375 46.53125 36.375 47.5 
Q 32.28125 48.484375 27.875 48.484375 
Q 21.1875 48.484375 17.84375 46.4375 
Q 14.5 44.390625 14.5 40.28125 
Q 14.5 37.15625 16.890625 35.375 
Q 19.28125 33.59375 26.515625 31.984375 
L 29.59375 31.296875 
Q 39.15625 29.25 43.1875 25.515625 
Q 47.21875 21.78125 47.21875 15.09375 
Q 47.21875 7.46875 41.1875 3.015625 
Q 35.15625 -1.421875 24.609375 -1.421875 
Q 20.21875 -1.421875 15.453125 -0.5625 
Q 10.6875 0.296875 5.421875 2 
L 5.421875 11.28125 
Q 10.40625 8.6875 15.234375 7.390625 
Q 20.0625 6.109375 24.8125 6.109375 
Q 31.15625 6.109375 34.5625 8.28125 
Q 37.984375 10.453125 37.984375 14.40625 
Q 37.984375 18.0625 35.515625 20.015625 
Q 33.0625 21.96875 24.703125 23.78125 
L 21.578125 24.515625 
Q 13.234375 26.265625 9.515625 29.90625 
Q 5.8125 33.546875 5.8125 39.890625 
Q 5.8125 47.609375 11.28125 51.796875 
Q 16.75 56 26.8125 56 
Q 31.78125 56 36.171875 55.265625 
Q 40.578125 54.546875 44.28125 53.078125 
" id="BitstreamVeraSans-Roman-73"/>
      <path d="M 18.109375 8.203125 
L 18.109375 -20.796875 
L 9.078125 -20.796875 
L 9.078125 54.6875 
L 18.109375 54.6875 
L 18.109375 46.390625 
Q 20.953125 51.265625 25.265625 53.625 
Q 29.59375 56 35.59375 56 
Q 45.5625 56 51.78125 48.09375 
Q 58.015625 40.1875 58.015625 27.296875 
Q 58.015625 14.40625 51.78125 6.484375 
Q 45.5625 -1.421875 35.59375 -1.421875 
Q 29.59375 -1.421875 25.265625 0.953125 
Q 20.953125 3.328125 18.109375 8.203125 
M 48.6875 27.296875 
Q 48.6875 37.203125 44.609375 42.84375 
Q 40.53125 48.484375 33.40625 48.484375 
Q 26.265625 48.484375 22.1875 42.84375 
Q 18.109375 37.203125 18.109375 27.296875 
Q 18.109375 17.390625 22.1875 11.75 
Q 26.265625 6.109375 33.40625 6.109375 
Q 40.53125 6.109375 44.609375 11.75 
Q 48.6875 17.390625 48.6875 27.296875 
" id="BitstreamVeraSans-Roman-70"/>
     </defs>
     <g transform="translate(209.19296875 278.2765625)scale(0.1 -0.1)">
      <use xlink:href="#BitstreamVeraSans-Roman-45"/>
      <use x="63.18359375" xlink:href="#BitstreamVeraSans-Roman-78"/>
      <use x="122.36328125" xlink:href="#BitstreamVeraSans-Roman-70"/>
      <use x="185.83984375" xlink:href="#BitstreamVeraSans-Roman-6f"/>
      <use x="247.021484375" xlink:href="#BitstreamVeraSans-Roman-73"/>
      <use x="299.12109375" xlink:href="#BitstreamVeraSans-Roman-75"/>
      <use x="362.5" xlink:href="#BitstreamVeraSans-Roman-72"/>
      <use x="403.58203125" xlink:href="#BitstreamVeraSans-Roman-65"/>
      <use x="465.10546875" xlink:href="#BitstreamVeraSans-Roman-20"/>
      <use x="496.892578125" xlink:href="#BitstreamVeraSans-Roman-74"/>
      <use x="536.1015625" xlink:href="#BitstreamVeraSans-Roman-69"/>
      <use x="563.884765625" xlink:href="#BitstreamVeraSans-Roman-6d"/>
      <use x="661.296875" xlink:href="#BitstreamVeraSans-Roman-65"/>
      <use x="722.8203125" xlink:href="#BitstreamVeraSans-Roman-20"/>
      <use x="754.607421875" xlink:href="#BitstreamVeraSans-Roman-28"/>
      <use x="793.62109375" xlink:href="#BitstreamVeraSans-Roman-6d"/>
      <use x="891.033203125" xlink:href="#BitstreamVeraSans-Roman-73"/>
      <use x="943.1328125" xlink:href="#BitstreamVeraSans-Roman-29"/>
     </g>
    </g>
   </g>
   <g id="matplotlib.axis_2">
    <g id="ytick_1">
     <g id="line2d_19">
      <defs>
       <path d="M 0 0 
L 4 0 
" id="m1f78173332" style="stroke:#000000;stroke-width:0.5;"/>
      </defs>
      <g>
       <use style="stroke:#000000;stroke-width:0.5;" x="63.0" xlink:href="#m1f78173332" y="252.0"/>
      </g>
     </g>
     <g id="line2d_20">
      <defs>
       <path d="M 0 0 
L -4 0 
" id="m99b3cc51d6" style="stroke:#000000;stroke-width:0.5;"/>
      </defs>
      <g>
       <use style="stroke:#000000;stroke-width:0.5;" x="453.6" xlink:href="#m99b3cc51d6" y="252.0"/>
      </g>
     </g>
     <g id="text_8">
      <!-- 0.0 -->
      <defs>
       <path d="M 10.6875 12.40625 
L 21 12.40625 
L 21 0 
L 10.6875 0 
z
" id="BitstreamVeraSans-Roman-2e"/>
      </defs>
      <g transform="translate(43.096875 254.759375)scale(0.1 -0.1)">
       <use xlink:href="#BitstreamVeraSans-Roman-30"/>
       <use x="63.623046875" xlink:href="#BitstreamVeraSans-Roman-2e"/>
       <use x="95.41015625" xlink:href="#BitstreamVeraSans-Roman-30"/>
      </g>
     </g>
    </g>
    <g id="ytick_2">
     <g id="line2d_21">
      <g>
       <use style="stroke:#000000;stroke-width:0.5;" x="63.0" xlink:href="#m1f78173332" y="207.36"/>
      </g>
     </g>
     <g id="line2d_22">
      <g>
       <use style="stroke:#000000;stroke-width:0.5;" x="453.6" xlink:href="#m99b3cc51d6" y="207.36"/>
      </g>
     </g>
     <g id="text_9">
      <!-- 0.2 -->
      <g transform="translate(43.096875 210.119375)scale(0.1 -0.1)">
       <use xlink:href="#BitstreamVeraSans-Roman-30"/>
       <use x="63.623046875" xlink:href="#BitstreamVeraSans-Roman-2e"/>
       <use x="95.41015625" xlink:href="#BitstreamVeraSans-Roman-32"/>
      </g>
     </g>
    </g>
    <g id="ytick_3">
     <g id="line2d_23">
      <g>
       <use style="stroke:#000000;stroke-width:0.5;" x="63.0" xlink:href="#m1f78173332" y="162.72"/>
      </g>
     </g>
     <g id="line2d_24">
      <g>
       <use style="stroke:#000000;stroke-width:0.5;" x="453.6" xlink:href="#m99b3cc51d6" y="162.72"/>
      </g>
     </g>
     <g id="text_10">
      <!-- 0.4 -->
      <g transform="translate(43.096875 165.479375)scale(0.1 -0.1)">
       <use xlink:href="#BitstreamVeraSans-Roman-30"/>
       <use x="63.623046875" xlink:href="#BitstreamVeraSans-Roman-2e"/>
       <use x="95.41015625" xlink:href="#BitstreamVeraSans-Roman-34"/>
      </g>
     </g>
    </g>
    <g id="ytick_4">
     <g id="line2d_25">
      <g>
       <use style="stroke:#000000;stroke-width:0.5;" x="63.0" xlink:href="#m1f78173332" y="118.08"/>
      </g>
     </g>
     <g id="line2d_26">
      <g>
       <use style="stroke:#000000;stroke-width:0.5;" x="453.6" xlink:href="#m99b3cc51d6" y="118.08"/>
      </g>
     </g>
     <g id="text_11">
      <!-- 0.6 -->
      <g transform="translate(43.096875 120.839375)scale(0.1 -0.1)">
       <use xlink:href="#BitstreamVeraSans-Roman-30"/>
       <use x="63.623046875" xlink:href="#BitstreamVeraSans-Roman-2e"/>
       <use x="95.41015625" xlink:href="#BitstreamVeraSans-Roman-36"/>
      </g>
     </g>
    </g>
    <g id="ytick_5">
     <g id="line2d_27">
      <g>
       <use style="stroke:#000000;stroke-width:0.5;" x="63.0" xlink:href="#m1f78173332" y="73.44"/>
      </g>
     </g>
     <g id="line2d_28">
      <g>
       <use style="stroke:#000000;stroke-width:0.5;" x="453.6" xlink:href="#m99b3cc51d6" y="73.44"/>
      </g>
     </g>
     <g id="text_12">
      <!-- 0.8 -->
      <g transform="translate(43.096875 76.199375)scale(0.1 -0.1)">
       <use xlink:href="#BitstreamVeraSans-Roman-30"/>
       <use x="63.623046875" xlink:href="#BitstreamVeraSans-Roman-2e"/>
       <use x="95.41015625" xlink:href="#BitstreamVeraSans-Roman-38"/>
      </g>
     </g>
    </g>
    <g id="ytick_6">
     <g id="line2d_29">
      <g>
       <use style="stroke:#000000;stroke-width:0.5;" x="63.0" xlink:href="#m1f78173332" y="28.8"/>
      </g>
     </g>
     <g id="line2d_30">
      <g>
       <use style="stroke:#000000;stroke-width:0.5;" x="453.6" xlink:href="#m99b3cc51d6" y="28.8"/>
      </g>
     </g>
     <g id="text_13">
      <!-- 1.0 -->
      <g transform="translate(43.096875 31.559375)scale(0.1 -0.1)">
       <use xlink:href="#BitstreamVeraSans-Roman-31"/>
       <use x="63.623046875" xlink:href="#BitstreamVeraSans-Roman-2e"/>
       <use x="95.41015625" xlink:href="#BitstreamVeraSans-Roman-30"/>
      </g>
     </g>
    </g>
    <g id="text_14">
     <!-- Remaining fraction -->
     <defs>
      <path d="M 54.890625 33.015625 
L 54.890625 0 
L 45.90625 0 
L 45.90625 32.71875 
Q 45.90625 40.484375 42.875 44.328125 
Q 39.84375 48.1875 33.796875 48.1875 
Q 26.515625 48.1875 22.3125 43.546875 
Q 18.109375 38.921875 18.109375 30.90625 
L 18.109375 0 
L 9.078125 0 
L 9.078125 54.6875 
L 18.109375 54.6875 
L 18.109375 46.1875 
Q 21.34375 51.125 25.703125 53.5625 
Q 30.078125 56 35.796875 56 
Q 45.21875 56 50.046875 50.171875 
Q 54.890625 44.34375 54.890625 33.015625 
" id="BitstreamVeraSans-Roman-6e"/>
      <path d="M 44.390625 34.1875 
Q 47.5625 33.109375 50.5625 29.59375 
Q 53.5625 26.078125 56.59375 19.921875 
L 66.609375 0 
L 56 0 
L 46.6875 18.703125 
Q 43.0625 26.03125 39.671875 28.421875 
Q 36.28125 30.8125 30.421875 30.8125 
L 19.671875 30.8125 
L 19.671875 0 
L 9.8125 0 
L 9.8125 72.90625 
L 32.078125 72.90625 
Q 44.578125 72.90625 50.734375 67.671875 
Q 56.890625 62.453125 56.890625 51.90625 
Q 56.890625 45.015625 53.6875 40.46875 
Q 50.484375 35.9375 44.390625 34.1875 
M 19.671875 64.796875 
L 19.671875 38.921875 
L 32.078125 38.921875 
Q 39.203125 38.921875 42.84375 42.21875 
Q 46.484375 45.515625 46.484375 51.90625 
Q 46.484375 58.296875 42.84375 61.546875 
Q 39.203125 64.796875 32.078125 64.796875 
z
" id="BitstreamVeraSans-Roman-52"/>
      <path d="M 45.40625 27.984375 
Q 45.40625 37.75 41.375 43.109375 
Q 37.359375 48.484375 30.078125 48.484375 
Q 22.859375 48.484375 18.828125 43.109375 
Q 14.796875 37.75 14.796875 27.984375 
Q 14.796875 18.265625 18.828125 12.890625 
Q 22.859375 7.515625 30.078125 7.515625 
Q 37.359375 7.515625 41.375 12.890625 
Q 45.40625 18.265625 45.40625 27.984375 
M 54.390625 6.78125 
Q 54.390625 -7.171875 48.1875 -13.984375 
Q 42 -20.796875 29.203125 -20.796875 
Q 24.46875 -20.796875 20.265625 -20.09375 
Q 16.0625 -19.390625 12.109375 -17.921875 
L 12.109375 -9.1875 
Q 16.0625 -11.328125 19.921875 -12.34375 
Q 23.78125 -13.375 27.78125 -13.375 
Q 36.625 -13.375 41.015625 -8.765625 
Q 45.40625 -4.15625 45.40625 5.171875 
L 45.40625 9.625 
Q 42.625 4.78125 38.28125 2.390625 
Q 33.9375 0 27.875 0 
Q 17.828125 0 11.671875 7.65625 
Q 5.515625 15.328125 5.515625 27.984375 
Q 5.515625 40.671875 11.671875 48.328125 
Q 17.828125 56 27.875 56 
Q 33.9375 56 38.28125 53.609375 
Q 42.625 51.21875 45.40625 46.390625 
L 45.40625 54.6875 
L 54.390625 54.6875 
z
" id="BitstreamVeraSans-Roman-67"/>
      <path d="M 37.109375 75.984375 
L 37.109375 68.5 
L 28.515625 68.5 
Q 23.6875 68.5 21.796875 66.546875 
Q 19.921875 64.59375 19.921875 59.515625 
L 19.921875 54.6875 
L 34.71875 54.6875 
L 34.71875 47.703125 
L 19.921875 47.703125 
L 19.921875 0 
L 10.890625 0 
L 10.890625 47.703125 
L 2.296875 47.703125 
L 2.296875 54.6875 
L 10.890625 54.6875 
L 10.890625 58.5 
Q 10.890625 67.625 15.140625 71.796875 
Q 19.390625 75.984375 28.609375 75.984375 
z
" id="BitstreamVeraSans-Roman-66"/>
      <path d="M 34.28125 27.484375 
Q 23.390625 27.484375 19.1875 25 
Q 14.984375 22.515625 14.984375 16.5 
Q 14.984375 11.71875 18.140625 8.90625 
Q 21.296875 6.109375 26.703125 6.109375 
Q 34.1875 6.109375 38.703125 11.40625 
Q 43.21875 16.703125 43.21875 25.484375 
L 43.21875 27.484375 
z
M 52.203125 31.203125 
L 52.203125 0 
L 43.21875 0 
L 43.21875 8.296875 
Q 40.140625 3.328125 35.546875 0.953125 
Q 30.953125 -1.421875 24.3125 -1.421875 
Q 15.921875 -1.421875 10.953125 3.296875 
Q 6 8.015625 6 15.921875 
Q 6 25.140625 12.171875 29.828125 
Q 18.359375 34.515625 30.609375 34.515625 
L 43.21875 34.515625 
L 43.21875 35.40625 
Q 43.21875 41.609375 39.140625 45 
Q 35.0625 48.390625 27.6875 48.390625 
Q 23 48.390625 18.546875 47.265625 
Q 14.109375 46.140625 10.015625 43.890625 
L 10.015625 52.203125 
Q 14.9375 54.109375 19.578125 55.046875 
Q 24.21875 56 28.609375 56 
Q 40.484375 56 46.34375 49.84375 
Q 52.203125 43.703125 52.203125 31.203125 
" id="BitstreamVeraSans-Roman-61"/>
      <path d="M 48.78125 52.59375 
L 48.78125 44.1875 
Q 44.96875 46.296875 41.140625 47.34375 
Q 37.3125 48.390625 33.40625 48.390625 
Q 24.65625 48.390625 19.8125 42.84375 
Q 14.984375 37.3125 14.984375 27.296875 
Q 14.984375 17.28125 19.8125 11.734375 
Q 24.65625 6.203125 33.40625 6.203125 
Q 37.3125 6.203125 41.140625 7.25 
Q 44.96875 8.296875 48.78125 10.40625 
L 48.78125 2.09375 
Q 45.015625 0.34375 40.984375 -0.53125 
Q 36.96875 -1.421875 32.421875 -1.421875 
Q 20.0625 -1.421875 12.78125 6.34375 
Q 5.515625 14.109375 5.515625 27.296875 
Q 5.515625 40.671875 12.859375 48.328125 
Q 20.21875 56 33.015625 56 
Q 37.15625 56 41.109375 55.140625 
Q 45.0625 54.296875 48.78125 52.59375 
" id="BitstreamVeraSans-Roman-63"/>
     </defs>
     <g transform="translate(36.0171875 187.9671875)rotate(-90.0)scale(0.1 -0.1)">
      <use xlink:href="#BitstreamVeraSans-Roman-52"/>
      <use x="69.419921875" xlink:href="#BitstreamVeraSans-Roman-65"/>
      <use x="130.943359375" xlink:href="#BitstreamVeraSans-Roman-6d"/>
      <use x="228.35546875" xlink:href="#BitstreamVeraSans-Roman-61"/>
      <use x="289.634765625" xlink:href="#BitstreamVeraSans-Roman-69"/>
      <use x="317.41796875" xlink:href="#BitstreamVeraSans-Roman-6e"/>
      <use x="380.796875" xlink:href="#BitstreamVeraSans-Roman-69"/>
      <use x="408.580078125" xlink:href="#BitstreamVeraSans-Roman-6e"/>
      <use x="471.958984375" xlink:href="#BitstreamVeraSans-Roman-67"/>
      <use x="535.435546875" xlink:href="#BitstreamVeraSans-Roman-20"/>
      <use x="567.22265625" xlink:href="#BitstreamVeraSans-Roman-66"/>
      <use x="602.427734375" xlink:href="#BitstreamVeraSans-Roman-72"/>
      <use x="643.541015625" xlink:href="#BitstreamVeraSans-Roman-61"/>
      <use x="704.8203125" xlink:href="#BitstreamVeraSans-Roman-63"/>
      <use x="759.80078125" xlink:href="#BitstreamVeraSans-Roman-74"/>
      <use x="799.009765625" xlink:href="#BitstreamVeraSans-Roman-69"/>
      <use x="826.79296875" xlink:href="#BitstreamVeraSans-Roman-6f"/>
      <use x="887.974609375" xlink:href="#BitstreamVeraSans-Roman-6e"/>
     </g>
    </g>
   </g>
   <g id="legend_1">
    <g id="patch_7">
     <path d="M 338.76 153.6 
L 447.6 153.6 
L 447.6 34.8 
L 338.76 34.8 
z
" style="fill:#ffffff;stroke:#000000;stroke-linejoin:miter;"/>
    </g>
    <g id="line2d_31">
     <path d="M 347.16 45.6 
L 363.96 45.6 
" style="fill:none;stroke:#0000ff;stroke-linecap:square;"/>
    </g>
    <g id="line2d_32"/>
    <g id="text_15">
     <!-- 0.1 $\mu m^2/s$ -->
     <defs>
      <path d="M 4.984375 0 
L 4.984375 2.6875 
Q 4.984375 2.9375 5.171875 3.21875 
L 20.703125 20.40625 
Q 24.21875 24.21875 26.40625 26.796875 
Q 28.609375 29.390625 30.75 32.765625 
Q 32.90625 36.140625 34.15625 39.625 
Q 35.40625 43.109375 35.40625 47.015625 
Q 35.40625 51.125 33.890625 54.859375 
Q 32.375 58.59375 29.375 60.84375 
Q 26.375 63.09375 22.125 63.09375 
Q 17.78125 63.09375 14.3125 60.46875 
Q 10.84375 57.859375 9.421875 53.71875 
Q 9.8125 53.8125 10.5 53.8125 
Q 12.75 53.8125 14.328125 52.296875 
Q 15.921875 50.78125 15.921875 48.390625 
Q 15.921875 46.09375 14.328125 44.5 
Q 12.75 42.921875 10.5 42.921875 
Q 8.15625 42.921875 6.5625 44.546875 
Q 4.984375 46.1875 4.984375 48.390625 
Q 4.984375 52.15625 6.390625 55.4375 
Q 7.8125 58.734375 10.46875 61.296875 
Q 13.140625 63.875 16.484375 65.234375 
Q 19.828125 66.609375 23.578125 66.609375 
Q 29.296875 66.609375 34.21875 64.1875 
Q 39.15625 61.765625 42.03125 57.34375 
Q 44.921875 52.9375 44.921875 47.015625 
Q 44.921875 42.671875 43.015625 38.765625 
Q 41.109375 34.859375 38.125 31.65625 
Q 35.15625 28.46875 30.515625 24.40625 
Q 25.875 20.359375 24.421875 19 
L 13.09375 8.109375 
L 22.703125 8.109375 
Q 29.78125 8.109375 34.546875 8.21875 
Q 39.3125 8.34375 39.59375 8.59375 
Q 40.765625 9.859375 42 17.828125 
L 44.921875 17.828125 
L 42.09375 0 
z
" id="Cmr10-32"/>
      <path d="M 5.609375 -23 
Q 5.609375 -22.703125 5.71875 -22.609375 
L 40.484375 73.78125 
Q 40.671875 74.359375 41.15625 74.671875 
Q 41.65625 75 42.28125 75 
Q 43.171875 75 43.71875 74.453125 
Q 44.28125 73.921875 44.28125 73 
L 44.28125 72.609375 
L 9.515625 -23.78125 
Q 8.9375 -25 7.625 -25 
Q 6.78125 -25 6.1875 -24.40625 
Q 5.609375 -23.828125 5.609375 -23 
" id="Cmmi10-3d"/>
      <path d="M 2.78125 -18.796875 
Q 2.78125 -18.21875 2.875 -18.015625 
L 17.578125 41.015625 
Q 18.015625 42.4375 19.15625 43.3125 
Q 20.3125 44.1875 21.78125 44.1875 
Q 23.046875 44.1875 23.921875 43.421875 
Q 24.8125 42.671875 24.8125 41.40625 
Q 24.8125 41.109375 24.78125 40.9375 
Q 24.75 40.765625 24.703125 40.578125 
L 18.796875 17.1875 
Q 17.828125 13.03125 17.828125 10.015625 
Q 17.828125 6.296875 19.578125 3.90625 
Q 21.34375 1.515625 24.90625 1.515625 
Q 32.171875 1.515625 37.703125 10.59375 
Q 37.75 10.6875 37.765625 10.734375 
Q 37.796875 10.796875 37.796875 10.890625 
L 45.015625 39.890625 
Q 45.359375 41.21875 46.578125 42.15625 
Q 47.796875 43.109375 49.21875 43.109375 
Q 50.390625 43.109375 51.296875 42.328125 
Q 52.203125 41.546875 52.203125 40.28125 
Q 52.203125 39.703125 52.09375 39.5 
L 44.921875 10.6875 
Q 44.1875 7.859375 44.1875 5.8125 
Q 44.1875 1.515625 47.125 1.515625 
Q 50.25 1.515625 51.828125 5.375 
Q 53.421875 9.234375 54.59375 14.703125 
Q 54.78125 15.28125 55.421875 15.28125 
L 56.59375 15.28125 
Q 56.984375 15.28125 57.25 14.96875 
Q 57.515625 14.65625 57.515625 14.3125 
Q 55.765625 7.328125 53.6875 3.09375 
Q 51.609375 -1.125 46.921875 -1.125 
Q 43.609375 -1.125 41.046875 0.78125 
Q 38.484375 2.6875 37.703125 5.90625 
Q 35.203125 2.78125 31.859375 0.828125 
Q 28.515625 -1.125 24.8125 -1.125 
Q 18.5625 -1.125 14.984375 1.8125 
L 9.90625 -18.40625 
Q 9.625 -19.828125 8.453125 -20.703125 
Q 7.28125 -21.578125 5.8125 -21.578125 
Q 4.59375 -21.578125 3.6875 -20.8125 
Q 2.78125 -20.0625 2.78125 -18.796875 
" id="Cmmi10-b9"/>
      <path d="M 7.71875 1.703125 
Q 7.71875 2.296875 7.8125 2.59375 
L 15.28125 32.421875 
Q 16.015625 35.203125 16.015625 37.3125 
Q 16.015625 41.609375 13.09375 41.609375 
Q 9.96875 41.609375 8.453125 37.859375 
Q 6.9375 34.125 5.515625 28.421875 
Q 5.515625 28.125 5.21875 27.953125 
Q 4.9375 27.78125 4.6875 27.78125 
L 3.515625 27.78125 
Q 3.171875 27.78125 2.921875 28.140625 
Q 2.6875 28.515625 2.6875 28.8125 
Q 3.765625 33.15625 4.765625 36.171875 
Q 5.765625 39.203125 7.890625 41.6875 
Q 10.015625 44.1875 13.1875 44.1875 
Q 16.9375 44.1875 19.8125 41.8125 
Q 22.703125 39.453125 22.703125 35.796875 
Q 25.6875 39.703125 29.6875 41.9375 
Q 33.6875 44.1875 38.1875 44.1875 
Q 42.921875 44.1875 46.359375 41.765625 
Q 49.8125 39.359375 49.8125 34.90625 
Q 52.875 39.265625 57 41.71875 
Q 61.140625 44.1875 66.015625 44.1875 
Q 71.1875 44.1875 74.328125 41.375 
Q 77.484375 38.578125 77.484375 33.40625 
Q 77.484375 29.296875 75.65625 23.484375 
Q 73.828125 17.671875 71.09375 10.5 
Q 69.671875 7.03125 69.671875 4.5 
Q 69.671875 1.515625 72.015625 1.515625 
Q 75.921875 1.515625 78.515625 5.703125 
Q 81.109375 9.90625 82.171875 14.703125 
Q 82.46875 15.28125 83.015625 15.28125 
L 84.1875 15.28125 
Q 84.578125 15.28125 84.84375 15.015625 
Q 85.109375 14.75 85.109375 14.40625 
Q 85.109375 14.3125 85.015625 14.109375 
Q 83.640625 8.453125 80.25 3.65625 
Q 76.859375 -1.125 71.78125 -1.125 
Q 68.265625 -1.125 65.765625 1.296875 
Q 63.28125 3.71875 63.28125 7.171875 
Q 63.28125 8.9375 64.109375 11.078125 
Q 66.9375 18.609375 68.8125 24.515625 
Q 70.703125 30.421875 70.703125 34.90625 
Q 70.703125 37.703125 69.578125 39.65625 
Q 68.453125 41.609375 65.828125 41.609375 
Q 60.359375 41.609375 56.34375 38.25 
Q 52.34375 34.90625 49.421875 29.390625 
Q 49.21875 28.421875 49.125 27.875 
L 42.671875 2.203125 
Q 42.328125 0.828125 41.125 -0.140625 
Q 39.9375 -1.125 38.484375 -1.125 
Q 37.3125 -1.125 36.40625 -0.34375 
Q 35.5 0.4375 35.5 1.703125 
Q 35.5 2.296875 35.59375 2.59375 
L 42 28.078125 
Q 43.015625 32.171875 43.015625 34.90625 
Q 43.015625 37.703125 41.859375 39.65625 
Q 40.71875 41.609375 37.984375 41.609375 
Q 34.328125 41.609375 31.25 39.984375 
Q 28.171875 38.375 25.875 35.71875 
Q 23.578125 33.0625 21.6875 29.390625 
L 14.890625 2.203125 
Q 14.546875 0.828125 13.34375 -0.140625 
Q 12.15625 -1.125 10.6875 -1.125 
Q 9.46875 -1.125 8.59375 -0.34375 
Q 7.71875 0.4375 7.71875 1.703125 
" id="Cmmi10-6d"/>
      <path d="M 8.6875 6.109375 
Q 11.375 1.515625 19.484375 1.515625 
Q 23 1.515625 26.171875 2.703125 
Q 29.34375 3.90625 31.421875 6.296875 
Q 33.5 8.6875 33.5 12.109375 
Q 33.5 14.703125 31.640625 16.359375 
Q 29.78125 18.015625 27.09375 18.609375 
L 21.6875 19.671875 
Q 17.96875 20.609375 15.578125 23.140625 
Q 13.1875 25.6875 13.1875 29.296875 
Q 13.1875 33.734375 15.59375 37.15625 
Q 18.015625 40.578125 21.96875 42.375 
Q 25.921875 44.1875 30.171875 44.1875 
Q 34.71875 44.1875 38.296875 42.015625 
Q 41.890625 39.84375 41.890625 35.59375 
Q 41.890625 33.296875 40.59375 31.53125 
Q 39.3125 29.78125 37.015625 29.78125 
Q 35.6875 29.78125 34.734375 30.640625 
Q 33.796875 31.5 33.796875 32.8125 
Q 33.796875 33.984375 34.453125 35.078125 
Q 35.109375 36.1875 36.203125 36.84375 
Q 37.3125 37.5 38.484375 37.5 
Q 37.59375 39.65625 35.171875 40.625 
Q 32.765625 41.609375 29.984375 41.609375 
Q 27.4375 41.609375 24.890625 40.578125 
Q 22.359375 39.546875 20.8125 37.5625 
Q 19.28125 35.59375 19.28125 32.90625 
Q 19.28125 31.109375 20.546875 29.734375 
Q 21.828125 28.375 23.6875 27.78125 
L 29.5 26.609375 
Q 32.28125 26.03125 34.59375 24.53125 
Q 36.921875 23.046875 38.25 20.765625 
Q 39.59375 18.5 39.59375 15.578125 
Q 39.59375 11.859375 37.515625 8.25 
Q 35.453125 4.640625 32.421875 2.484375 
Q 27.09375 -1.125 19.390625 -1.125 
Q 14.0625 -1.125 9.609375 1.3125 
Q 5.171875 3.765625 5.171875 8.59375 
Q 5.171875 11.328125 6.75 13.34375 
Q 8.34375 15.375 11.078125 15.375 
Q 12.703125 15.375 13.796875 14.390625 
Q 14.890625 13.421875 14.890625 11.8125 
Q 14.890625 9.515625 13.171875 7.8125 
Q 11.46875 6.109375 9.1875 6.109375 
z
" id="Cmmi10-73"/>
     </defs>
     <g transform="translate(377.16 49.8)scale(0.12 -0.12)">
      <use transform="translate(0.0 0.109375)" xlink:href="#BitstreamVeraSans-Roman-30"/>
      <use transform="translate(63.623046875 0.109375)" xlink:href="#BitstreamVeraSans-Roman-2e"/>
      <use transform="translate(95.41015625 0.109375)" xlink:href="#BitstreamVeraSans-Roman-31"/>
      <use transform="translate(159.033203125 0.109375)" xlink:href="#BitstreamVeraSans-Roman-20"/>
      <use transform="translate(190.8203125 0.109375)" xlink:href="#Cmmi10-b9"/>
      <use transform="translate(251.025390625 0.109375)" xlink:href="#Cmmi10-6d"/>
      <use transform="translate(345.121640625 38.3734375)scale(0.7)" xlink:href="#Cmr10-32"/>
      <use transform="translate(386.498984375 0.109375)" xlink:href="#Cmmi10-3d"/>
      <use transform="translate(436.498984375 0.109375)" xlink:href="#Cmmi10-73"/>
     </g>
    </g>
    <g id="line2d_33">
     <path d="M 347.16 64.8 
L 363.96 64.8 
" style="fill:none;stroke:#008000;stroke-linecap:square;"/>
    </g>
    <g id="line2d_34"/>
    <g id="text_16">
     <!-- 0.5 $\mu m^2/s$ -->
     <defs>
      <path d="M 10.796875 72.90625 
L 49.515625 72.90625 
L 49.515625 64.59375 
L 19.828125 64.59375 
L 19.828125 46.734375 
Q 21.96875 47.46875 24.109375 47.828125 
Q 26.265625 48.1875 28.421875 48.1875 
Q 40.625 48.1875 47.75 41.5 
Q 54.890625 34.8125 54.890625 23.390625 
Q 54.890625 11.625 47.5625 5.09375 
Q 40.234375 -1.421875 26.90625 -1.421875 
Q 22.3125 -1.421875 17.546875 -0.640625 
Q 12.796875 0.140625 7.71875 1.703125 
L 7.71875 11.625 
Q 12.109375 9.234375 16.796875 8.0625 
Q 21.484375 6.890625 26.703125 6.890625 
Q 35.15625 6.890625 40.078125 11.328125 
Q 45.015625 15.765625 45.015625 23.390625 
Q 45.015625 31 40.078125 35.4375 
Q 35.15625 39.890625 26.703125 39.890625 
Q 22.75 39.890625 18.8125 39.015625 
Q 14.890625 38.140625 10.796875 36.28125 
z
" id="BitstreamVeraSans-Roman-35"/>
     </defs>
     <g transform="translate(377.16 69.0)scale(0.12 -0.12)">
      <use transform="translate(0.0 0.109375)" xlink:href="#BitstreamVeraSans-Roman-30"/>
      <use transform="translate(63.623046875 0.109375)" xlink:href="#BitstreamVeraSans-Roman-2e"/>
      <use transform="translate(95.41015625 0.109375)" xlink:href="#BitstreamVeraSans-Roman-35"/>
      <use transform="translate(159.033203125 0.109375)" xlink:href="#BitstreamVeraSans-Roman-20"/>
      <use transform="translate(190.8203125 0.109375)" xlink:href="#Cmmi10-b9"/>
      <use transform="translate(251.025390625 0.109375)" xlink:href="#Cmmi10-6d"/>
      <use transform="translate(345.121640625 38.3734375)scale(0.7)" xlink:href="#Cmr10-32"/>
      <use transform="translate(386.498984375 0.109375)" xlink:href="#Cmmi10-3d"/>
      <use transform="translate(436.498984375 0.109375)" xlink:href="#Cmmi10-73"/>
     </g>
    </g>
    <g id="line2d_35">
     <path d="M 347.16 84 
L 363.96 84 
" style="fill:none;stroke:#ff0000;stroke-linecap:square;"/>
    </g>
    <g id="line2d_36"/>
    <g id="text_17">
     <!-- 1.0 $\mu m^2/s$ -->
     <g transform="translate(377.16 88.2)scale(0.12 -0.12)">
      <use transform="translate(0.0 0.109375)" xlink:href="#BitstreamVeraSans-Roman-31"/>
      <use transform="translate(63.623046875 0.109375)" xlink:href="#BitstreamVeraSans-Roman-2e"/>
      <use transform="translate(95.41015625 0.109375)" xlink:href="#BitstreamVeraSans-Roman-30"/>
      <use transform="translate(159.033203125 0.109375)" xlink:href="#BitstreamVeraSans-Roman-20"/>
      <use transform="translate(190.8203125 0.109375)" xlink:href="#Cmmi10-b9"/>
      <use transform="translate(251.025390625 0.109375)" xlink:href="#Cmmi10-6d"/>
      <use transform="translate(345.121640625 38.3734375)scale(0.7)" xlink:href="#Cmr10-32"/>
      <use transform="translate(386.498984375 0.109375)" xlink:href="#Cmmi10-3d"/>
      <use transform="translate(436.498984375 0.109375)" xlink:href="#Cmmi10-73"/>
     </g>
    </g>
    <g id="line2d_37">
     <path d="M 347.16 103.2 
L 363.96 103.2 
" style="fill:none;stroke:#00bfbf;stroke-linecap:square;"/>
    </g>
    <g id="line2d_38"/>
    <g id="text_18">
     <!-- 2.5 $\mu m^2/s$ -->
     <g transform="translate(377.16 107.4)scale(0.12 -0.12)">
      <use transform="translate(0.0 0.109375)" xlink:href="#BitstreamVeraSans-Roman-32"/>
      <use transform="translate(63.623046875 0.109375)" xlink:href="#BitstreamVeraSans-Roman-2e"/>
      <use transform="translate(95.41015625 0.109375)" xlink:href="#BitstreamVeraSans-Roman-35"/>
      <use transform="translate(159.033203125 0.109375)" xlink:href="#BitstreamVeraSans-Roman-20"/>
      <use transform="translate(190.8203125 0.109375)" xlink:href="#Cmmi10-b9"/>
      <use transform="translate(251.025390625 0.109375)" xlink:href="#Cmmi10-6d"/>
      <use transform="translate(345.121640625 38.3734375)scale(0.7)" xlink:href="#Cmr10-32"/>
      <use transform="translate(386.498984375 0.109375)" xlink:href="#Cmmi10-3d"/>
      <use transform="translate(436.498984375 0.109375)" xlink:href="#Cmmi10-73"/>
     </g>
    </g>
    <g id="line2d_39">
     <path d="M 347.16 122.4 
L 363.96 122.4 
" style="fill:none;stroke:#bf00bf;stroke-linecap:square;"/>
    </g>
    <g id="line2d_40"/>
    <g id="text_19">
     <!-- 5.0 $\mu m^2/s$ -->
     <g transform="translate(377.16 126.6)scale(0.12 -0.12)">
      <use transform="translate(0.0 0.109375)" xlink:href="#BitstreamVeraSans-Roman-35"/>
      <use transform="translate(63.623046875 0.109375)" xlink:href="#BitstreamVeraSans-Roman-2e"/>
      <use transform="translate(95.41015625 0.109375)" xlink:href="#BitstreamVeraSans-Roman-30"/>
      <use transform="translate(159.033203125 0.109375)" xlink:href="#BitstreamVeraSans-Roman-20"/>
      <use transform="translate(190.8203125 0.109375)" xlink:href="#Cmmi10-b9"/>
      <use transform="translate(251.025390625 0.109375)" xlink:href="#Cmmi10-6d"/>
      <use transform="translate(345.121640625 38.3734375)scale(0.7)" xlink:href="#Cmr10-32"/>
      <use transform="translate(386.498984375 0.109375)" xlink:href="#Cmmi10-3d"/>
      <use transform="translate(436.498984375 0.109375)" xlink:href="#Cmmi10-73"/>
     </g>
    </g>
    <g id="line2d_41">
     <path d="M 347.16 141.6 
L 363.96 141.6 
" style="fill:none;stroke:#bfbf00;stroke-linecap:square;"/>
    </g>
    <g id="line2d_42"/>
    <g id="text_20">
     <!-- 10.0 $\mu m^2/s$ -->
     <g transform="translate(377.16 145.8)scale(0.12 -0.12)">
      <use transform="translate(0.0 0.109375)" xlink:href="#BitstreamVeraSans-Roman-31"/>
      <use transform="translate(63.623046875 0.109375)" xlink:href="#BitstreamVeraSans-Roman-30"/>
      <use transform="translate(127.24609375 0.109375)" xlink:href="#BitstreamVeraSans-Roman-2e"/>
      <use transform="translate(159.033203125 0.109375)" xlink:href="#BitstreamVeraSans-Roman-30"/>
      <use transform="translate(222.65625 0.109375)" xlink:href="#BitstreamVeraSans-Roman-20"/>
      <use transform="translate(254.443359375 0.109375)" xlink:href="#Cmmi10-b9"/>
      <use transform="translate(314.6484375 0.109375)" xlink:href="#Cmmi10-6d"/>
      <use transform="translate(408.7446875 38.3734375)scale(0.7)" xlink:href="#Cmr10-32"/>
      <use transform="translate(450.12203125 0.109375)" xlink:href="#Cmmi10-3d"/>
      <use transform="translate(500.12203125 0.109375)" xlink:href="#Cmmi10-73"/>
     </g>
    </g>
   </g>
  </g>
 </g>
 <defs>
  <clipPath id="pb080b9a333">
   <rect height="223.2" width="390.6" x="63.0" y="28.8"/>
  </clipPath>
 </defs>
</svg>
