<?xml version="1.0" encoding="utf-8" standalone="no"?>
<!DOCTYPE svg PUBLIC "-//W3C//DTD SVG 1.1//EN"
  "http://www.w3.org/Graphics/SVG/1.1/DTD/svg11.dtd">
<!-- Created with matplotlib (http://matplotlib.org/) -->
<svg height="432pt" version="1.1" viewBox="0 0 720 432" width="720pt" xmlns="http://www.w3.org/2000/svg" xmlns:xlink="http://www.w3.org/1999/xlink">
 <defs>
  <style type="text/css">
*{stroke-linecap:butt;stroke-linejoin:round;stroke-miterlimit:100000;}
  </style>
 </defs>
 <g id="figure_1">
  <g id="patch_1">
   <path d="M 0 432 
L 720 432 
L 720 0 
L 0 0 
z
" style="fill:#ffffff;"/>
  </g>
  <g id="axes_1">
   <g id="patch_2">
    <path d="M 90 378 
L 648 378 
L 648 43.2 
L 90 43.2 
z
" style="fill:#ffffff;"/>
   </g>
   <g id="line2d_1">
    <path clip-path="url(#pce77e2be59)" d="M 129.06 64.299409 
L 134.64 65.562982 
L 140.22 66.718874 
L 145.8 67.70097 
L 151.38 68.724949 
L 156.96 69.692501 
L 162.54 70.516289 
L 168.12 71.385387 
L 173.7 72.295572 
L 179.28 72.958665 
L 184.86 73.792626 
L 190.44 74.37046 
L 196.02 75.009931 
L 201.6 75.675315 
L 207.18 76.302685 
L 212.76 76.812371 
L 218.34 77.583236 
L 223.92 78.137589 
L 229.5 78.62081 
L 235.08 79.290563 
L 240.66 79.788394 
L 246.24 80.231056 
L 251.82 80.554704 
L 257.4 80.908495 
L 262.98 81.416523 
L 268.56 81.732086 
L 274.14 82.170272 
L 279.72 82.571447 
L 285.3 83.050955 
L 290.88 83.382849 
L 296.46 83.885769 
L 302.04 84.277662 
L 307.62 84.278695 
L 313.2 84.634755 
L 318.78 84.993559 
L 324.36 85.383001 
L 329.94 85.66577 
L 335.52 85.981684 
L 341.1 86.600024 
L 346.68 86.938272 
L 352.26 86.880277 
L 357.84 87.318674 
L 363.42 87.622408 
L 369 87.772614 
L 374.58 88.312507 
L 380.16 88.485987 
L 385.74 89.023542 
L 391.32 89.273716 
L 396.9 89.672109 
L 402.48 89.994567 
L 408.06 90.429205 
L 413.64 90.559178 
L 419.22 90.853609 
L 424.8 91.258912 
L 430.38 91.397101 
L 435.96 91.807962 
L 441.54 91.953085 
L 447.12 92.336889 
L 452.7 92.484062 
L 458.28 92.838523 
L 463.86 92.960288 
L 469.44 93.240592 
L 475.02 93.781301 
L 480.6 94.034983 
L 486.18 94.155289 
L 491.76 94.382846 
L 497.34 94.664592 
L 502.92 94.884731 
L 508.5 95.111278 
L 514.08 95.40504 
L 519.66 95.27845 
L 525.24 95.504219 
L 530.82 96.09416 
L 536.4 96.095539 
L 541.98 96.539567 
L 547.56 96.636252 
L 553.14 96.877519 
L 558.72 96.923064 
L 564.3 97.404541 
L 569.88 97.603931 
L 575.46 97.898646 
L 581.04 98.004888 
L 586.62 98.405231 
L 592.2 98.529171 
L 597.78 98.871088 
L 603.36 99.077268 
L 608.94 99.153762 
L 614.52 99.490085 
L 620.1 99.24107 
L 625.68 99.435156 
L 631.26 99.623176 
L 636.84 99.882269 
L 642.42 100.199471 
" style="fill:none;stroke:#0000ff;stroke-linecap:square;"/>
   </g>
   <g id="line2d_2">
    <path clip-path="url(#pce77e2be59)" d="M 129.06 85.151315 
L 134.64 87.576975 
L 140.22 89.792374 
L 145.8 91.697504 
L 151.38 93.621187 
L 156.96 95.442776 
L 162.54 96.992855 
L 168.12 98.620018 
L 173.7 100.272547 
L 179.28 101.562355 
L 184.86 103.071527 
L 190.44 104.1935 
L 196.02 105.40109 
L 201.6 106.622083 
L 207.18 107.787461 
L 212.76 108.776908 
L 218.34 110.107135 
L 223.92 111.126064 
L 229.5 112.055314 
L 235.08 113.217077 
L 240.66 114.135919 
L 246.24 114.988564 
L 251.82 115.688693 
L 257.4 116.402409 
L 262.98 117.290647 
L 268.56 117.949377 
L 274.14 118.746798 
L 279.72 119.510365 
L 285.3 120.327467 
L 290.88 120.997428 
L 296.46 121.843732 
L 302.04 122.561104 
L 307.62 122.713713 
L 313.2 123.356935 
L 318.78 124.030693 
L 324.36 124.721705 
L 329.94 125.271561 
L 335.52 125.868291 
L 341.1 126.881216 
L 346.68 127.504193 
L 352.26 127.631239 
L 357.84 128.359313 
L 363.42 128.925124 
L 369 129.297684 
L 374.58 130.140148 
L 380.16 130.524106 
L 385.74 131.348952 
L 391.32 131.822743 
L 396.9 132.485416 
L 402.48 133.039386 
L 408.06 133.766579 
L 413.64 134.064569 
L 419.22 134.585119 
L 424.8 135.249911 
L 430.38 135.560187 
L 435.96 136.236957 
L 441.54 136.592993 
L 447.12 137.22547 
L 452.7 137.55441 
L 458.28 138.136768 
L 463.86 138.42594 
L 469.44 138.929125 
L 475.02 139.756592 
L 480.6 140.207975 
L 486.18 140.47213 
L 491.76 140.882177 
L 497.34 141.367887 
L 502.92 141.759986 
L 508.5 142.183381 
L 514.08 142.689581 
L 519.66 142.511662 
L 525.24 142.927373 
L 530.82 143.913191 
L 536.4 144.067584 
L 541.98 144.708218 
L 547.56 144.979289 
L 553.14 145.404411 
L 558.72 145.598805 
L 564.3 146.16235 
L 569.88 146.514154 
L 575.46 147.078507 
L 581.04 147.335036 
L 586.62 147.936786 
L 592.2 148.189669 
L 597.78 148.742539 
L 603.36 149.088695 
L 608.94 149.295639 
L 614.52 149.795997 
L 620.1 149.557374 
L 625.68 149.910018 
L 631.26 150.236096 
L 636.84 150.650719 
L 642.42 151.149891 
" style="fill:none;stroke:#008000;stroke-linecap:square;"/>
   </g>
   <g id="line2d_3">
    <path clip-path="url(#pce77e2be59)" d="M 129.06 98.925266 
L 134.64 102.005193 
L 140.22 104.817184 
L 145.8 107.258042 
L 151.38 109.666774 
L 156.96 111.95297 
L 162.54 113.898719 
L 168.12 115.934787 
L 173.7 117.957114 
L 179.28 119.616147 
L 184.86 121.460481 
L 190.44 122.902409 
L 196.02 124.425427 
L 201.6 125.934686 
L 207.18 127.388341 
L 212.76 128.660314 
L 218.34 130.231476 
L 223.92 131.494169 
L 229.5 132.681842 
L 235.08 134.061881 
L 240.66 135.20469 
L 246.24 136.295926 
L 251.82 137.255224 
L 257.4 138.195255 
L 262.98 139.257657 
L 268.56 140.142613 
L 274.14 141.124962 
L 279.72 142.094796 
L 285.3 143.053736 
L 290.88 143.936356 
L 296.46 144.920335 
L 302.04 145.808441 
L 307.62 146.125895 
L 313.2 146.914741 
L 318.78 147.76324 
L 324.36 148.600127 
L 329.94 149.308308 
L 335.52 150.062824 
L 341.1 151.216776 
L 346.68 151.991686 
L 352.26 152.345882 
L 357.84 153.184578 
L 363.42 153.893663 
L 369 154.437451 
L 374.58 155.358286 
L 380.16 155.889657 
L 385.74 156.778675 
L 391.32 157.379039 
L 396.9 158.145125 
L 402.48 158.801835 
L 408.06 159.647049 
L 413.64 160.065958 
L 419.22 160.696241 
L 424.8 161.457375 
L 430.38 161.889093 
L 435.96 162.666835 
L 441.54 163.182238 
L 447.12 163.909459 
L 452.7 164.365986 
L 458.28 165.034167 
L 463.86 165.446775 
L 469.44 166.062838 
L 475.02 166.957883 
L 480.6 167.507464 
L 486.18 167.870633 
L 491.76 168.374152 
L 497.34 168.952634 
L 502.92 169.430427 
L 508.5 169.962781 
L 514.08 170.565623 
L 519.66 170.388005 
L 525.24 170.905788 
L 530.82 172.053813 
L 536.4 172.36693 
L 541.98 173.024267 
L 547.56 173.435706 
L 553.14 173.950055 
L 558.72 174.279969 
L 564.3 174.72645 
L 569.88 175.152689 
L 575.46 175.872813 
L 581.04 176.240264 
L 586.62 176.883663 
L 592.2 177.218018 
L 597.78 177.84684 
L 603.36 178.251988 
L 608.94 178.561344 
L 614.52 179.092083 
L 620.1 178.966306 
L 625.68 179.401861 
L 631.26 179.792287 
L 636.84 180.260015 
L 642.42 180.815752 
" style="fill:none;stroke:#ff0000;stroke-linecap:square;"/>
   </g>
   <g id="line2d_4">
    <path clip-path="url(#pce77e2be59)" d="M 129.06 122.485783 
L 134.64 126.47971 
L 140.22 130.129416 
L 145.8 133.357806 
L 151.38 136.408774 
L 156.96 139.321658 
L 162.54 141.804063 
L 168.12 144.388302 
L 173.7 146.847871 
L 179.28 149.065585 
L 184.86 151.307012 
L 190.44 153.232696 
L 196.02 155.200382 
L 201.6 157.079558 
L 207.18 158.921682 
L 212.76 160.622267 
L 218.34 162.410291 
L 223.92 163.993604 
L 229.5 165.566778 
L 235.08 167.161098 
L 240.66 168.605273 
L 246.24 170.054464 
L 251.82 171.468328 
L 257.4 172.775449 
L 262.98 174.02168 
L 268.56 175.289167 
L 274.14 176.509245 
L 279.72 177.780629 
L 285.3 178.863595 
L 290.88 180.090476 
L 296.46 181.180737 
L 302.04 182.294669 
L 307.62 182.981604 
L 313.2 183.953706 
L 318.78 185.049734 
L 324.36 186.057248 
L 329.94 187.006489 
L 335.52 187.987505 
L 341.1 189.211564 
L 346.68 190.191311 
L 352.26 191.07277 
L 357.84 191.983962 
L 363.42 192.891392 
L 369 193.755706 
L 374.58 194.638547 
L 380.16 195.427609 
L 385.74 196.250529 
L 391.32 197.032666 
L 396.9 197.873554 
L 402.48 198.632649 
L 408.06 199.571769 
L 413.64 200.204295 
L 419.22 200.962519 
L 424.8 201.781713 
L 430.38 202.424155 
L 435.96 203.267947 
L 441.54 204.072336 
L 447.12 204.861843 
L 452.7 205.537653 
L 458.28 206.259634 
L 463.86 206.891276 
L 469.44 207.645575 
L 475.02 208.488171 
L 480.6 209.154394 
L 486.18 209.683615 
L 491.76 210.302694 
L 497.34 210.975626 
L 502.92 211.554895 
L 508.5 212.235082 
L 514.08 212.935628 
L 519.66 212.80387 
L 525.24 213.454717 
L 530.82 214.731209 
L 536.4 215.374732 
L 541.98 215.908475 
L 547.56 216.576912 
L 553.14 217.190353 
L 558.72 217.784985 
L 564.3 217.818859 
L 569.88 218.328411 
L 575.46 219.265097 
L 581.04 219.822651 
L 586.62 220.411084 
L 592.2 220.86838 
L 597.78 221.532786 
L 603.36 221.986173 
L 608.94 222.47656 
L 614.52 222.952225 
L 620.1 223.141442 
L 625.68 223.676893 
L 631.26 224.131532 
L 636.84 224.615788 
L 642.42 225.174906 
" style="fill:none;stroke:#00bfbf;stroke-linecap:square;"/>
   </g>
   <g id="line2d_5">
    <path clip-path="url(#pce77e2be59)" d="M 129.06 144.34246 
L 134.64 148.956088 
L 140.22 153.184208 
L 145.8 157.005242 
L 151.38 160.454587 
L 156.96 163.774611 
L 162.54 166.611283 
L 168.12 169.550734 
L 173.7 172.221364 
L 179.28 174.883365 
L 184.86 177.320257 
L 190.44 179.630209 
L 196.02 181.915994 
L 201.6 184.017802 
L 207.18 186.117229 
L 212.76 188.158439 
L 218.34 189.96241 
L 223.92 191.74863 
L 229.5 193.619853 
L 235.08 195.262529 
L 240.66 196.90453 
L 246.24 198.63061 
L 251.82 200.463227 
L 257.4 202.08091 
L 262.98 203.386718 
L 268.56 204.990873 
L 274.14 206.34978 
L 279.72 207.840872 
L 285.3 208.924422 
L 290.88 210.435988 
L 296.46 211.50092 
L 302.04 212.751414 
L 307.62 213.840183 
L 313.2 214.910394 
L 318.78 216.172821 
L 324.36 217.254261 
L 329.94 218.382684 
L 335.52 219.516942 
L 341.1 220.642369 
L 346.68 221.744875 
L 352.26 223.199997 
L 357.84 224.062812 
L 363.42 225.092475 
L 369 226.249674 
L 374.58 226.9396 
L 380.16 227.94688 
L 385.74 228.551006 
L 391.32 229.450079 
L 396.9 230.257189 
L 402.48 231.031675 
L 408.06 231.947067 
L 413.64 232.758785 
L 419.22 233.564682 
L 424.8 234.331575 
L 430.38 235.145564 
L 435.96 235.943109 
L 441.54 236.99236 
L 447.12 237.738338 
L 452.7 238.588015 
L 458.28 239.265678 
L 463.86 240.076167 
L 469.44 240.887081 
L 475.02 241.532673 
L 480.6 242.24181 
L 486.18 242.896271 
L 491.76 243.563225 
L 497.34 244.249105 
L 502.92 244.864262 
L 508.5 245.621536 
L 514.08 246.333752 
L 519.66 246.27885 
L 525.24 246.991993 
L 530.82 248.227424 
L 536.4 249.173579 
L 541.98 249.473769 
L 547.56 250.349681 
L 553.14 250.987206 
L 558.72 251.808477 
L 564.3 251.340585 
L 569.88 251.871601 
L 575.46 252.922578 
L 581.04 253.620279 
L 586.62 254.052863 
L 592.2 254.585214 
L 597.78 255.18967 
L 603.36 255.630392 
L 608.94 256.257747 
L 614.52 256.596354 
L 620.1 257.124446 
L 625.68 257.693691 
L 631.26 258.152742 
L 636.84 258.581303 
L 642.42 259.058286 
" style="fill:none;stroke:#bf00bf;stroke-linecap:square;"/>
   </g>
   <g id="line2d_6">
    <path clip-path="url(#pce77e2be59)" d="M 129.06 169.076369 
L 134.64 174.12907 
L 140.22 178.788264 
L 145.8 183.125441 
L 151.38 186.809341 
L 156.96 190.400296 
L 162.54 193.481523 
L 168.12 196.656239 
L 173.7 199.360716 
L 179.28 202.435284 
L 184.86 204.910305 
L 190.44 207.572241 
L 196.02 210.105587 
L 201.6 212.324109 
L 207.18 214.593528 
L 212.76 216.937565 
L 218.34 218.570966 
L 223.92 220.474425 
L 229.5 222.595483 
L 235.08 224.136547 
L 240.66 225.899808 
L 246.24 227.853206 
L 251.82 230.107556 
L 257.4 232.007124 
L 262.98 233.258775 
L 268.56 235.179325 
L 274.14 236.591392 
L 279.72 238.236772 
L 285.3 239.203242 
L 290.88 240.956727 
L 296.46 241.870102 
L 302.04 243.178307 
L 307.62 244.714042 
L 313.2 245.80407 
L 318.78 247.160011 
L 324.36 248.225109 
L 329.94 249.477396 
L 335.52 250.697674 
L 341.1 251.564394 
L 346.68 252.714091 
L 352.26 254.788189 
L 357.84 255.488799 
L 363.42 256.568817 
L 369 257.990346 
L 374.58 258.345131 
L 380.16 259.531151 
L 385.74 259.779281 
L 391.32 260.734291 
L 396.9 261.409737 
L 402.48 262.120972 
L 408.06 262.907994 
L 413.64 263.864038 
L 419.22 264.645068 
L 424.8 265.263794 
L 430.38 266.209815 
L 435.96 266.864459 
L 441.54 268.111652 
L 447.12 268.724003 
L 452.7 269.701454 
L 458.28 270.252336 
L 463.86 271.199429 
L 469.44 271.994638 
L 475.02 272.330319 
L 480.6 273.018588 
L 486.18 273.757977 
L 491.76 274.413946 
L 497.34 275.044538 
L 502.92 275.639531 
L 508.5 276.411415 
L 514.08 277.064322 
L 519.66 277.106973 
L 525.24 277.820861 
L 530.82 278.880694 
L 536.4 280.086956 
L 541.98 280.081389 
L 547.56 281.110968 
L 553.14 281.711223 
L 558.72 282.711967 
L 564.3 281.708962 
L 569.88 282.211668 
L 575.46 283.289138 
L 581.04 284.0776 
L 586.62 284.288684 
L 592.2 284.853573 
L 597.78 285.330016 
L 603.36 285.712948 
L 608.94 286.432799 
L 614.52 286.58396 
L 620.1 287.44025 
L 625.68 287.990443 
L 631.26 288.408554 
L 636.84 288.732383 
L 642.42 289.071051 
" style="fill:none;stroke:#bfbf00;stroke-linecap:square;"/>
   </g>
   <g id="patch_3">
    <path d="M 90 43.2 
L 648 43.2 
" style="fill:none;stroke:#000000;stroke-linecap:square;stroke-linejoin:miter;"/>
   </g>
   <g id="patch_4">
    <path d="M 648 378 
L 648 43.2 
" style="fill:none;stroke:#000000;stroke-linecap:square;stroke-linejoin:miter;"/>
   </g>
   <g id="patch_5">
    <path d="M 90 378 
L 648 378 
" style="fill:none;stroke:#000000;stroke-linecap:square;stroke-linejoin:miter;"/>
   </g>
   <g id="patch_6">
    <path d="M 90 378 
L 90 43.2 
" style="fill:none;stroke:#000000;stroke-linecap:square;stroke-linejoin:miter;"/>
   </g>
   <g id="matplotlib.axis_1">
    <g id="xtick_1">
     <g id="line2d_7">
      <defs>
       <path d="M 0 0 
L 0 -4 
" id="m83482a8b02" style="stroke:#000000;stroke-width:0.5;"/>
      </defs>
      <g>
       <use style="stroke:#000000;stroke-width:0.5;" x="90.0" xlink:href="#m83482a8b02" y="378.0"/>
      </g>
     </g>
     <g id="line2d_8">
      <defs>
       <path d="M 0 0 
L 0 4 
" id="ma728d6ebeb" style="stroke:#000000;stroke-width:0.5;"/>
      </defs>
      <g>
       <use style="stroke:#000000;stroke-width:0.5;" x="90.0" xlink:href="#ma728d6ebeb" y="43.2"/>
      </g>
     </g>
     <g id="text_1">
      <!-- 0 -->
      <defs>
       <path d="M 31.78125 66.40625 
Q 24.171875 66.40625 20.328125 58.90625 
Q 16.5 51.421875 16.5 36.375 
Q 16.5 21.390625 20.328125 13.890625 
Q 24.171875 6.390625 31.78125 6.390625 
Q 39.453125 6.390625 43.28125 13.890625 
Q 47.125 21.390625 47.125 36.375 
Q 47.125 51.421875 43.28125 58.90625 
Q 39.453125 66.40625 31.78125 66.40625 
M 31.78125 74.21875 
Q 44.046875 74.21875 50.515625 64.515625 
Q 56.984375 54.828125 56.984375 36.375 
Q 56.984375 17.96875 50.515625 8.265625 
Q 44.046875 -1.421875 31.78125 -1.421875 
Q 19.53125 -1.421875 13.0625 8.265625 
Q 6.59375 17.96875 6.59375 36.375 
Q 6.59375 54.828125 13.0625 64.515625 
Q 19.53125 74.21875 31.78125 74.21875 
" id="BitstreamVeraSans-Roman-30"/>
      </defs>
      <g transform="translate(86.81875 389.5984375)scale(0.1 -0.1)">
       <use xlink:href="#BitstreamVeraSans-Roman-30"/>
      </g>
     </g>
    </g>
    <g id="xtick_2">
     <g id="line2d_9">
      <g>
       <use style="stroke:#000000;stroke-width:0.5;" x="201.6" xlink:href="#m83482a8b02" y="378.0"/>
      </g>
     </g>
     <g id="line2d_10">
      <g>
       <use style="stroke:#000000;stroke-width:0.5;" x="201.6" xlink:href="#ma728d6ebeb" y="43.2"/>
      </g>
     </g>
     <g id="text_2">
      <!-- 20 -->
      <defs>
       <path d="M 19.1875 8.296875 
L 53.609375 8.296875 
L 53.609375 0 
L 7.328125 0 
L 7.328125 8.296875 
Q 12.9375 14.109375 22.625 23.890625 
Q 32.328125 33.6875 34.8125 36.53125 
Q 39.546875 41.84375 41.421875 45.53125 
Q 43.3125 49.21875 43.3125 52.78125 
Q 43.3125 58.59375 39.234375 62.25 
Q 35.15625 65.921875 28.609375 65.921875 
Q 23.96875 65.921875 18.8125 64.3125 
Q 13.671875 62.703125 7.8125 59.421875 
L 7.8125 69.390625 
Q 13.765625 71.78125 18.9375 73 
Q 24.125 74.21875 28.421875 74.21875 
Q 39.75 74.21875 46.484375 68.546875 
Q 53.21875 62.890625 53.21875 53.421875 
Q 53.21875 48.921875 51.53125 44.890625 
Q 49.859375 40.875 45.40625 35.40625 
Q 44.1875 33.984375 37.640625 27.21875 
Q 31.109375 20.453125 19.1875 8.296875 
" id="BitstreamVeraSans-Roman-32"/>
      </defs>
      <g transform="translate(195.2375 389.5984375)scale(0.1 -0.1)">
       <use xlink:href="#BitstreamVeraSans-Roman-32"/>
       <use x="63.623046875" xlink:href="#BitstreamVeraSans-Roman-30"/>
      </g>
     </g>
    </g>
    <g id="xtick_3">
     <g id="line2d_11">
      <g>
       <use style="stroke:#000000;stroke-width:0.5;" x="313.2" xlink:href="#m83482a8b02" y="378.0"/>
      </g>
     </g>
     <g id="line2d_12">
      <g>
       <use style="stroke:#000000;stroke-width:0.5;" x="313.2" xlink:href="#ma728d6ebeb" y="43.2"/>
      </g>
     </g>
     <g id="text_3">
      <!-- 40 -->
      <defs>
       <path d="M 37.796875 64.3125 
L 12.890625 25.390625 
L 37.796875 25.390625 
z
M 35.203125 72.90625 
L 47.609375 72.90625 
L 47.609375 25.390625 
L 58.015625 25.390625 
L 58.015625 17.1875 
L 47.609375 17.1875 
L 47.609375 0 
L 37.796875 0 
L 37.796875 17.1875 
L 4.890625 17.1875 
L 4.890625 26.703125 
z
" id="BitstreamVeraSans-Roman-34"/>
      </defs>
      <g transform="translate(306.8375 389.5984375)scale(0.1 -0.1)">
       <use xlink:href="#BitstreamVeraSans-Roman-34"/>
       <use x="63.623046875" xlink:href="#BitstreamVeraSans-Roman-30"/>
      </g>
     </g>
    </g>
    <g id="xtick_4">
     <g id="line2d_13">
      <g>
       <use style="stroke:#000000;stroke-width:0.5;" x="424.8" xlink:href="#m83482a8b02" y="378.0"/>
      </g>
     </g>
     <g id="line2d_14">
      <g>
       <use style="stroke:#000000;stroke-width:0.5;" x="424.8" xlink:href="#ma728d6ebeb" y="43.2"/>
      </g>
     </g>
     <g id="text_4">
      <!-- 60 -->
      <defs>
       <path d="M 33.015625 40.375 
Q 26.375 40.375 22.484375 35.828125 
Q 18.609375 31.296875 18.609375 23.390625 
Q 18.609375 15.53125 22.484375 10.953125 
Q 26.375 6.390625 33.015625 6.390625 
Q 39.65625 6.390625 43.53125 10.953125 
Q 47.40625 15.53125 47.40625 23.390625 
Q 47.40625 31.296875 43.53125 35.828125 
Q 39.65625 40.375 33.015625 40.375 
M 52.59375 71.296875 
L 52.59375 62.3125 
Q 48.875 64.0625 45.09375 64.984375 
Q 41.3125 65.921875 37.59375 65.921875 
Q 27.828125 65.921875 22.671875 59.328125 
Q 17.53125 52.734375 16.796875 39.40625 
Q 19.671875 43.65625 24.015625 45.921875 
Q 28.375 48.1875 33.59375 48.1875 
Q 44.578125 48.1875 50.953125 41.515625 
Q 57.328125 34.859375 57.328125 23.390625 
Q 57.328125 12.15625 50.6875 5.359375 
Q 44.046875 -1.421875 33.015625 -1.421875 
Q 20.359375 -1.421875 13.671875 8.265625 
Q 6.984375 17.96875 6.984375 36.375 
Q 6.984375 53.65625 15.1875 63.9375 
Q 23.390625 74.21875 37.203125 74.21875 
Q 40.921875 74.21875 44.703125 73.484375 
Q 48.484375 72.75 52.59375 71.296875 
" id="BitstreamVeraSans-Roman-36"/>
      </defs>
      <g transform="translate(418.4375 389.5984375)scale(0.1 -0.1)">
       <use xlink:href="#BitstreamVeraSans-Roman-36"/>
       <use x="63.623046875" xlink:href="#BitstreamVeraSans-Roman-30"/>
      </g>
     </g>
    </g>
    <g id="xtick_5">
     <g id="line2d_15">
      <g>
       <use style="stroke:#000000;stroke-width:0.5;" x="536.4" xlink:href="#m83482a8b02" y="378.0"/>
      </g>
     </g>
     <g id="line2d_16">
      <g>
       <use style="stroke:#000000;stroke-width:0.5;" x="536.4" xlink:href="#ma728d6ebeb" y="43.2"/>
      </g>
     </g>
     <g id="text_5">
      <!-- 80 -->
      <defs>
       <path d="M 31.78125 34.625 
Q 24.75 34.625 20.71875 30.859375 
Q 16.703125 27.09375 16.703125 20.515625 
Q 16.703125 13.921875 20.71875 10.15625 
Q 24.75 6.390625 31.78125 6.390625 
Q 38.8125 6.390625 42.859375 10.171875 
Q 46.921875 13.96875 46.921875 20.515625 
Q 46.921875 27.09375 42.890625 30.859375 
Q 38.875 34.625 31.78125 34.625 
M 21.921875 38.8125 
Q 15.578125 40.375 12.03125 44.71875 
Q 8.5 49.078125 8.5 55.328125 
Q 8.5 64.0625 14.71875 69.140625 
Q 20.953125 74.21875 31.78125 74.21875 
Q 42.671875 74.21875 48.875 69.140625 
Q 55.078125 64.0625 55.078125 55.328125 
Q 55.078125 49.078125 51.53125 44.71875 
Q 48 40.375 41.703125 38.8125 
Q 48.828125 37.15625 52.796875 32.3125 
Q 56.78125 27.484375 56.78125 20.515625 
Q 56.78125 9.90625 50.3125 4.234375 
Q 43.84375 -1.421875 31.78125 -1.421875 
Q 19.734375 -1.421875 13.25 4.234375 
Q 6.78125 9.90625 6.78125 20.515625 
Q 6.78125 27.484375 10.78125 32.3125 
Q 14.796875 37.15625 21.921875 38.8125 
M 18.3125 54.390625 
Q 18.3125 48.734375 21.84375 45.5625 
Q 25.390625 42.390625 31.78125 42.390625 
Q 38.140625 42.390625 41.71875 45.5625 
Q 45.3125 48.734375 45.3125 54.390625 
Q 45.3125 60.0625 41.71875 63.234375 
Q 38.140625 66.40625 31.78125 66.40625 
Q 25.390625 66.40625 21.84375 63.234375 
Q 18.3125 60.0625 18.3125 54.390625 
" id="BitstreamVeraSans-Roman-38"/>
      </defs>
      <g transform="translate(530.0375 389.5984375)scale(0.1 -0.1)">
       <use xlink:href="#BitstreamVeraSans-Roman-38"/>
       <use x="63.623046875" xlink:href="#BitstreamVeraSans-Roman-30"/>
      </g>
     </g>
    </g>
    <g id="xtick_6">
     <g id="line2d_17">
      <g>
       <use style="stroke:#000000;stroke-width:0.5;" x="648.0" xlink:href="#m83482a8b02" y="378.0"/>
      </g>
     </g>
     <g id="line2d_18">
      <g>
       <use style="stroke:#000000;stroke-width:0.5;" x="648.0" xlink:href="#ma728d6ebeb" y="43.2"/>
      </g>
     </g>
     <g id="text_6">
      <!-- 100 -->
      <defs>
       <path d="M 12.40625 8.296875 
L 28.515625 8.296875 
L 28.515625 63.921875 
L 10.984375 60.40625 
L 10.984375 69.390625 
L 28.421875 72.90625 
L 38.28125 72.90625 
L 38.28125 8.296875 
L 54.390625 8.296875 
L 54.390625 0 
L 12.40625 0 
z
" id="BitstreamVeraSans-Roman-31"/>
      </defs>
      <g transform="translate(638.45625 389.5984375)scale(0.1 -0.1)">
       <use xlink:href="#BitstreamVeraSans-Roman-31"/>
       <use x="63.623046875" xlink:href="#BitstreamVeraSans-Roman-30"/>
       <use x="127.24609375" xlink:href="#BitstreamVeraSans-Roman-30"/>
      </g>
     </g>
    </g>
    <g id="text_7">
     <!-- Exposure time (ms) -->
     <defs>
      <path id="BitstreamVeraSans-Roman-20"/>
      <path d="M 8.015625 75.875 
L 15.828125 75.875 
Q 23.140625 64.359375 26.78125 53.3125 
Q 30.421875 42.28125 30.421875 31.390625 
Q 30.421875 20.453125 26.78125 9.375 
Q 23.140625 -1.703125 15.828125 -13.1875 
L 8.015625 -13.1875 
Q 14.5 -2 17.703125 9.0625 
Q 20.90625 20.125 20.90625 31.390625 
Q 20.90625 42.671875 17.703125 53.65625 
Q 14.5 64.65625 8.015625 75.875 
" id="BitstreamVeraSans-Roman-29"/>
      <path d="M 52 44.1875 
Q 55.375 50.25 60.0625 53.125 
Q 64.75 56 71.09375 56 
Q 79.640625 56 84.28125 50.015625 
Q 88.921875 44.046875 88.921875 33.015625 
L 88.921875 0 
L 79.890625 0 
L 79.890625 32.71875 
Q 79.890625 40.578125 77.09375 44.375 
Q 74.3125 48.1875 68.609375 48.1875 
Q 61.625 48.1875 57.5625 43.546875 
Q 53.515625 38.921875 53.515625 30.90625 
L 53.515625 0 
L 44.484375 0 
L 44.484375 32.71875 
Q 44.484375 40.625 41.703125 44.40625 
Q 38.921875 48.1875 33.109375 48.1875 
Q 26.21875 48.1875 22.15625 43.53125 
Q 18.109375 38.875 18.109375 30.90625 
L 18.109375 0 
L 9.078125 0 
L 9.078125 54.6875 
L 18.109375 54.6875 
L 18.109375 46.1875 
Q 21.1875 51.21875 25.484375 53.609375 
Q 29.78125 56 35.6875 56 
Q 41.65625 56 45.828125 52.96875 
Q 50 49.953125 52 44.1875 
" id="BitstreamVeraSans-Roman-6d"/>
      <path d="M 30.609375 48.390625 
Q 23.390625 48.390625 19.1875 42.75 
Q 14.984375 37.109375 14.984375 27.296875 
Q 14.984375 17.484375 19.15625 11.84375 
Q 23.34375 6.203125 30.609375 6.203125 
Q 37.796875 6.203125 41.984375 11.859375 
Q 46.1875 17.53125 46.1875 27.296875 
Q 46.1875 37.015625 41.984375 42.703125 
Q 37.796875 48.390625 30.609375 48.390625 
M 30.609375 56 
Q 42.328125 56 49.015625 48.375 
Q 55.71875 40.765625 55.71875 27.296875 
Q 55.71875 13.875 49.015625 6.21875 
Q 42.328125 -1.421875 30.609375 -1.421875 
Q 18.84375 -1.421875 12.171875 6.21875 
Q 5.515625 13.875 5.515625 27.296875 
Q 5.515625 40.765625 12.171875 48.375 
Q 18.84375 56 30.609375 56 
" id="BitstreamVeraSans-Roman-6f"/>
      <path d="M 9.8125 72.90625 
L 55.90625 72.90625 
L 55.90625 64.59375 
L 19.671875 64.59375 
L 19.671875 43.015625 
L 54.390625 43.015625 
L 54.390625 34.71875 
L 19.671875 34.71875 
L 19.671875 8.296875 
L 56.78125 8.296875 
L 56.78125 0 
L 9.8125 0 
z
" id="BitstreamVeraSans-Roman-45"/>
      <path d="M 9.421875 54.6875 
L 18.40625 54.6875 
L 18.40625 0 
L 9.421875 0 
z
M 9.421875 75.984375 
L 18.40625 75.984375 
L 18.40625 64.59375 
L 9.421875 64.59375 
z
" id="BitstreamVeraSans-Roman-69"/>
      <path d="M 54.890625 54.6875 
L 35.109375 28.078125 
L 55.90625 0 
L 45.3125 0 
L 29.390625 21.484375 
L 13.484375 0 
L 2.875 0 
L 24.125 28.609375 
L 4.6875 54.6875 
L 15.28125 54.6875 
L 29.78125 35.203125 
L 44.28125 54.6875 
z
" id="BitstreamVeraSans-Roman-78"/>
      <path d="M 31 75.875 
Q 24.46875 64.65625 21.28125 53.65625 
Q 18.109375 42.671875 18.109375 31.390625 
Q 18.109375 20.125 21.3125 9.0625 
Q 24.515625 -2 31 -13.1875 
L 23.1875 -13.1875 
Q 15.875 -1.703125 12.234375 9.375 
Q 8.59375 20.453125 8.59375 31.390625 
Q 8.59375 42.28125 12.203125 53.3125 
Q 15.828125 64.359375 23.1875 75.875 
z
" id="BitstreamVeraSans-Roman-28"/>
      <path d="M 56.203125 29.59375 
L 56.203125 25.203125 
L 14.890625 25.203125 
Q 15.484375 15.921875 20.484375 11.0625 
Q 25.484375 6.203125 34.421875 6.203125 
Q 39.59375 6.203125 44.453125 7.46875 
Q 49.3125 8.734375 54.109375 11.28125 
L 54.109375 2.78125 
Q 49.265625 0.734375 44.1875 -0.34375 
Q 39.109375 -1.421875 33.890625 -1.421875 
Q 20.796875 -1.421875 13.15625 6.1875 
Q 5.515625 13.8125 5.515625 26.8125 
Q 5.515625 40.234375 12.765625 48.109375 
Q 20.015625 56 32.328125 56 
Q 43.359375 56 49.78125 48.890625 
Q 56.203125 41.796875 56.203125 29.59375 
M 47.21875 32.234375 
Q 47.125 39.59375 43.09375 43.984375 
Q 39.0625 48.390625 32.421875 48.390625 
Q 24.90625 48.390625 20.390625 44.140625 
Q 15.875 39.890625 15.1875 32.171875 
z
" id="BitstreamVeraSans-Roman-65"/>
      <path d="M 18.3125 70.21875 
L 18.3125 54.6875 
L 36.8125 54.6875 
L 36.8125 47.703125 
L 18.3125 47.703125 
L 18.3125 18.015625 
Q 18.3125 11.328125 20.140625 9.421875 
Q 21.96875 7.515625 27.59375 7.515625 
L 36.8125 7.515625 
L 36.8125 0 
L 27.59375 0 
Q 17.1875 0 13.234375 3.875 
Q 9.28125 7.765625 9.28125 18.015625 
L 9.28125 47.703125 
L 2.6875 47.703125 
L 2.6875 54.6875 
L 9.28125 54.6875 
L 9.28125 70.21875 
z
" id="BitstreamVeraSans-Roman-74"/>
      <path d="M 8.5 21.578125 
L 8.5 54.6875 
L 17.484375 54.6875 
L 17.484375 21.921875 
Q 17.484375 14.15625 20.5 10.265625 
Q 23.53125 6.390625 29.59375 6.390625 
Q 36.859375 6.390625 41.078125 11.03125 
Q 45.3125 15.671875 45.3125 23.6875 
L 45.3125 54.6875 
L 54.296875 54.6875 
L 54.296875 0 
L 45.3125 0 
L 45.3125 8.40625 
Q 42.046875 3.421875 37.71875 1 
Q 33.40625 -1.421875 27.6875 -1.421875 
Q 18.265625 -1.421875 13.375 4.4375 
Q 8.5 10.296875 8.5 21.578125 
" id="BitstreamVeraSans-Roman-75"/>
      <path d="M 41.109375 46.296875 
Q 39.59375 47.171875 37.8125 47.578125 
Q 36.03125 48 33.890625 48 
Q 26.265625 48 22.1875 43.046875 
Q 18.109375 38.09375 18.109375 28.8125 
L 18.109375 0 
L 9.078125 0 
L 9.078125 54.6875 
L 18.109375 54.6875 
L 18.109375 46.1875 
Q 20.953125 51.171875 25.484375 53.578125 
Q 30.03125 56 36.53125 56 
Q 37.453125 56 38.578125 55.875 
Q 39.703125 55.765625 41.0625 55.515625 
z
" id="BitstreamVeraSans-Roman-72"/>
      <path d="M 44.28125 53.078125 
L 44.28125 44.578125 
Q 40.484375 46.53125 36.375 47.5 
Q 32.28125 48.484375 27.875 48.484375 
Q 21.1875 48.484375 17.84375 46.4375 
Q 14.5 44.390625 14.5 40.28125 
Q 14.5 37.15625 16.890625 35.375 
Q 19.28125 33.59375 26.515625 31.984375 
L 29.59375 31.296875 
Q 39.15625 29.25 43.1875 25.515625 
Q 47.21875 21.78125 47.21875 15.09375 
Q 47.21875 7.46875 41.1875 3.015625 
Q 35.15625 -1.421875 24.609375 -1.421875 
Q 20.21875 -1.421875 15.453125 -0.5625 
Q 10.6875 0.296875 5.421875 2 
L 5.421875 11.28125 
Q 10.40625 8.6875 15.234375 7.390625 
Q 20.0625 6.109375 24.8125 6.109375 
Q 31.15625 6.109375 34.5625 8.28125 
Q 37.984375 10.453125 37.984375 14.40625 
Q 37.984375 18.0625 35.515625 20.015625 
Q 33.0625 21.96875 24.703125 23.78125 
L 21.578125 24.515625 
Q 13.234375 26.265625 9.515625 29.90625 
Q 5.8125 33.546875 5.8125 39.890625 
Q 5.8125 47.609375 11.28125 51.796875 
Q 16.75 56 26.8125 56 
Q 31.78125 56 36.171875 55.265625 
Q 40.578125 54.546875 44.28125 53.078125 
" id="BitstreamVeraSans-Roman-73"/>
      <path d="M 18.109375 8.203125 
L 18.109375 -20.796875 
L 9.078125 -20.796875 
L 9.078125 54.6875 
L 18.109375 54.6875 
L 18.109375 46.390625 
Q 20.953125 51.265625 25.265625 53.625 
Q 29.59375 56 35.59375 56 
Q 45.5625 56 51.78125 48.09375 
Q 58.015625 40.1875 58.015625 27.296875 
Q 58.015625 14.40625 51.78125 6.484375 
Q 45.5625 -1.421875 35.59375 -1.421875 
Q 29.59375 -1.421875 25.265625 0.953125 
Q 20.953125 3.328125 18.109375 8.203125 
M 48.6875 27.296875 
Q 48.6875 37.203125 44.609375 42.84375 
Q 40.53125 48.484375 33.40625 48.484375 
Q 26.265625 48.484375 22.1875 42.84375 
Q 18.109375 37.203125 18.109375 27.296875 
Q 18.109375 17.390625 22.1875 11.75 
Q 26.265625 6.109375 33.40625 6.109375 
Q 40.53125 6.109375 44.609375 11.75 
Q 48.6875 17.390625 48.6875 27.296875 
" id="BitstreamVeraSans-Roman-70"/>
     </defs>
     <g transform="translate(319.89296875 404.2765625)scale(0.1 -0.1)">
      <use xlink:href="#BitstreamVeraSans-Roman-45"/>
      <use x="63.18359375" xlink:href="#BitstreamVeraSans-Roman-78"/>
      <use x="122.36328125" xlink:href="#BitstreamVeraSans-Roman-70"/>
      <use x="185.83984375" xlink:href="#BitstreamVeraSans-Roman-6f"/>
      <use x="247.021484375" xlink:href="#BitstreamVeraSans-Roman-73"/>
      <use x="299.12109375" xlink:href="#BitstreamVeraSans-Roman-75"/>
      <use x="362.5" xlink:href="#BitstreamVeraSans-Roman-72"/>
      <use x="403.58203125" xlink:href="#BitstreamVeraSans-Roman-65"/>
      <use x="465.10546875" xlink:href="#BitstreamVeraSans-Roman-20"/>
      <use x="496.892578125" xlink:href="#BitstreamVeraSans-Roman-74"/>
      <use x="536.1015625" xlink:href="#BitstreamVeraSans-Roman-69"/>
      <use x="563.884765625" xlink:href="#BitstreamVeraSans-Roman-6d"/>
      <use x="661.296875" xlink:href="#BitstreamVeraSans-Roman-65"/>
      <use x="722.8203125" xlink:href="#BitstreamVeraSans-Roman-20"/>
      <use x="754.607421875" xlink:href="#BitstreamVeraSans-Roman-28"/>
      <use x="793.62109375" xlink:href="#BitstreamVeraSans-Roman-6d"/>
      <use x="891.033203125" xlink:href="#BitstreamVeraSans-Roman-73"/>
      <use x="943.1328125" xlink:href="#BitstreamVeraSans-Roman-29"/>
     </g>
    </g>
   </g>
   <g id="matplotlib.axis_2">
    <g id="ytick_1">
     <g id="line2d_19">
      <defs>
       <path d="M 0 0 
L 4 0 
" id="ma1139f3431" style="stroke:#000000;stroke-width:0.5;"/>
      </defs>
      <g>
       <use style="stroke:#000000;stroke-width:0.5;" x="90.0" xlink:href="#ma1139f3431" y="378.0"/>
      </g>
     </g>
     <g id="line2d_20">
      <defs>
       <path d="M 0 0 
L -4 0 
" id="md9954f0f8d" style="stroke:#000000;stroke-width:0.5;"/>
      </defs>
      <g>
       <use style="stroke:#000000;stroke-width:0.5;" x="648.0" xlink:href="#md9954f0f8d" y="378.0"/>
      </g>
     </g>
     <g id="text_8">
      <!-- 0.0 -->
      <defs>
       <path d="M 10.6875 12.40625 
L 21 12.40625 
L 21 0 
L 10.6875 0 
z
" id="BitstreamVeraSans-Roman-2e"/>
      </defs>
      <g transform="translate(70.096875 380.759375)scale(0.1 -0.1)">
       <use xlink:href="#BitstreamVeraSans-Roman-30"/>
       <use x="63.623046875" xlink:href="#BitstreamVeraSans-Roman-2e"/>
       <use x="95.41015625" xlink:href="#BitstreamVeraSans-Roman-30"/>
      </g>
     </g>
    </g>
    <g id="ytick_2">
     <g id="line2d_21">
      <g>
       <use style="stroke:#000000;stroke-width:0.5;" x="90.0" xlink:href="#ma1139f3431" y="311.04"/>
      </g>
     </g>
     <g id="line2d_22">
      <g>
       <use style="stroke:#000000;stroke-width:0.5;" x="648.0" xlink:href="#md9954f0f8d" y="311.04"/>
      </g>
     </g>
     <g id="text_9">
      <!-- 0.2 -->
      <g transform="translate(70.096875 313.799375)scale(0.1 -0.1)">
       <use xlink:href="#BitstreamVeraSans-Roman-30"/>
       <use x="63.623046875" xlink:href="#BitstreamVeraSans-Roman-2e"/>
       <use x="95.41015625" xlink:href="#BitstreamVeraSans-Roman-32"/>
      </g>
     </g>
    </g>
    <g id="ytick_3">
     <g id="line2d_23">
      <g>
       <use style="stroke:#000000;stroke-width:0.5;" x="90.0" xlink:href="#ma1139f3431" y="244.08"/>
      </g>
     </g>
     <g id="line2d_24">
      <g>
       <use style="stroke:#000000;stroke-width:0.5;" x="648.0" xlink:href="#md9954f0f8d" y="244.08"/>
      </g>
     </g>
     <g id="text_10">
      <!-- 0.4 -->
      <g transform="translate(70.096875 246.839375)scale(0.1 -0.1)">
       <use xlink:href="#BitstreamVeraSans-Roman-30"/>
       <use x="63.623046875" xlink:href="#BitstreamVeraSans-Roman-2e"/>
       <use x="95.41015625" xlink:href="#BitstreamVeraSans-Roman-34"/>
      </g>
     </g>
    </g>
    <g id="ytick_4">
     <g id="line2d_25">
      <g>
       <use style="stroke:#000000;stroke-width:0.5;" x="90.0" xlink:href="#ma1139f3431" y="177.12"/>
      </g>
     </g>
     <g id="line2d_26">
      <g>
       <use style="stroke:#000000;stroke-width:0.5;" x="648.0" xlink:href="#md9954f0f8d" y="177.12"/>
      </g>
     </g>
     <g id="text_11">
      <!-- 0.6 -->
      <g transform="translate(70.096875 179.879375)scale(0.1 -0.1)">
       <use xlink:href="#BitstreamVeraSans-Roman-30"/>
       <use x="63.623046875" xlink:href="#BitstreamVeraSans-Roman-2e"/>
       <use x="95.41015625" xlink:href="#BitstreamVeraSans-Roman-36"/>
      </g>
     </g>
    </g>
    <g id="ytick_5">
     <g id="line2d_27">
      <g>
       <use style="stroke:#000000;stroke-width:0.5;" x="90.0" xlink:href="#ma1139f3431" y="110.16"/>
      </g>
     </g>
     <g id="line2d_28">
      <g>
       <use style="stroke:#000000;stroke-width:0.5;" x="648.0" xlink:href="#md9954f0f8d" y="110.16"/>
      </g>
     </g>
     <g id="text_12">
      <!-- 0.8 -->
      <g transform="translate(70.096875 112.919375)scale(0.1 -0.1)">
       <use xlink:href="#BitstreamVeraSans-Roman-30"/>
       <use x="63.623046875" xlink:href="#BitstreamVeraSans-Roman-2e"/>
       <use x="95.41015625" xlink:href="#BitstreamVeraSans-Roman-38"/>
      </g>
     </g>
    </g>
    <g id="ytick_6">
     <g id="line2d_29">
      <g>
       <use style="stroke:#000000;stroke-width:0.5;" x="90.0" xlink:href="#ma1139f3431" y="43.2"/>
      </g>
     </g>
     <g id="line2d_30">
      <g>
       <use style="stroke:#000000;stroke-width:0.5;" x="648.0" xlink:href="#md9954f0f8d" y="43.2"/>
      </g>
     </g>
     <g id="text_13">
      <!-- 1.0 -->
      <g transform="translate(70.096875 45.959375)scale(0.1 -0.1)">
       <use xlink:href="#BitstreamVeraSans-Roman-31"/>
       <use x="63.623046875" xlink:href="#BitstreamVeraSans-Roman-2e"/>
       <use x="95.41015625" xlink:href="#BitstreamVeraSans-Roman-30"/>
      </g>
     </g>
    </g>
    <g id="text_14">
     <!-- Remaining fraction -->
     <defs>
      <path d="M 54.890625 33.015625 
L 54.890625 0 
L 45.90625 0 
L 45.90625 32.71875 
Q 45.90625 40.484375 42.875 44.328125 
Q 39.84375 48.1875 33.796875 48.1875 
Q 26.515625 48.1875 22.3125 43.546875 
Q 18.109375 38.921875 18.109375 30.90625 
L 18.109375 0 
L 9.078125 0 
L 9.078125 54.6875 
L 18.109375 54.6875 
L 18.109375 46.1875 
Q 21.34375 51.125 25.703125 53.5625 
Q 30.078125 56 35.796875 56 
Q 45.21875 56 50.046875 50.171875 
Q 54.890625 44.34375 54.890625 33.015625 
" id="BitstreamVeraSans-Roman-6e"/>
      <path d="M 44.390625 34.1875 
Q 47.5625 33.109375 50.5625 29.59375 
Q 53.5625 26.078125 56.59375 19.921875 
L 66.609375 0 
L 56 0 
L 46.6875 18.703125 
Q 43.0625 26.03125 39.671875 28.421875 
Q 36.28125 30.8125 30.421875 30.8125 
L 19.671875 30.8125 
L 19.671875 0 
L 9.8125 0 
L 9.8125 72.90625 
L 32.078125 72.90625 
Q 44.578125 72.90625 50.734375 67.671875 
Q 56.890625 62.453125 56.890625 51.90625 
Q 56.890625 45.015625 53.6875 40.46875 
Q 50.484375 35.9375 44.390625 34.1875 
M 19.671875 64.796875 
L 19.671875 38.921875 
L 32.078125 38.921875 
Q 39.203125 38.921875 42.84375 42.21875 
Q 46.484375 45.515625 46.484375 51.90625 
Q 46.484375 58.296875 42.84375 61.546875 
Q 39.203125 64.796875 32.078125 64.796875 
z
" id="BitstreamVeraSans-Roman-52"/>
      <path d="M 45.40625 27.984375 
Q 45.40625 37.75 41.375 43.109375 
Q 37.359375 48.484375 30.078125 48.484375 
Q 22.859375 48.484375 18.828125 43.109375 
Q 14.796875 37.75 14.796875 27.984375 
Q 14.796875 18.265625 18.828125 12.890625 
Q 22.859375 7.515625 30.078125 7.515625 
Q 37.359375 7.515625 41.375 12.890625 
Q 45.40625 18.265625 45.40625 27.984375 
M 54.390625 6.78125 
Q 54.390625 -7.171875 48.1875 -13.984375 
Q 42 -20.796875 29.203125 -20.796875 
Q 24.46875 -20.796875 20.265625 -20.09375 
Q 16.0625 -19.390625 12.109375 -17.921875 
L 12.109375 -9.1875 
Q 16.0625 -11.328125 19.921875 -12.34375 
Q 23.78125 -13.375 27.78125 -13.375 
Q 36.625 -13.375 41.015625 -8.765625 
Q 45.40625 -4.15625 45.40625 5.171875 
L 45.40625 9.625 
Q 42.625 4.78125 38.28125 2.390625 
Q 33.9375 0 27.875 0 
Q 17.828125 0 11.671875 7.65625 
Q 5.515625 15.328125 5.515625 27.984375 
Q 5.515625 40.671875 11.671875 48.328125 
Q 17.828125 56 27.875 56 
Q 33.9375 56 38.28125 53.609375 
Q 42.625 51.21875 45.40625 46.390625 
L 45.40625 54.6875 
L 54.390625 54.6875 
z
" id="BitstreamVeraSans-Roman-67"/>
      <path d="M 37.109375 75.984375 
L 37.109375 68.5 
L 28.515625 68.5 
Q 23.6875 68.5 21.796875 66.546875 
Q 19.921875 64.59375 19.921875 59.515625 
L 19.921875 54.6875 
L 34.71875 54.6875 
L 34.71875 47.703125 
L 19.921875 47.703125 
L 19.921875 0 
L 10.890625 0 
L 10.890625 47.703125 
L 2.296875 47.703125 
L 2.296875 54.6875 
L 10.890625 54.6875 
L 10.890625 58.5 
Q 10.890625 67.625 15.140625 71.796875 
Q 19.390625 75.984375 28.609375 75.984375 
z
" id="BitstreamVeraSans-Roman-66"/>
      <path d="M 34.28125 27.484375 
Q 23.390625 27.484375 19.1875 25 
Q 14.984375 22.515625 14.984375 16.5 
Q 14.984375 11.71875 18.140625 8.90625 
Q 21.296875 6.109375 26.703125 6.109375 
Q 34.1875 6.109375 38.703125 11.40625 
Q 43.21875 16.703125 43.21875 25.484375 
L 43.21875 27.484375 
z
M 52.203125 31.203125 
L 52.203125 0 
L 43.21875 0 
L 43.21875 8.296875 
Q 40.140625 3.328125 35.546875 0.953125 
Q 30.953125 -1.421875 24.3125 -1.421875 
Q 15.921875 -1.421875 10.953125 3.296875 
Q 6 8.015625 6 15.921875 
Q 6 25.140625 12.171875 29.828125 
Q 18.359375 34.515625 30.609375 34.515625 
L 43.21875 34.515625 
L 43.21875 35.40625 
Q 43.21875 41.609375 39.140625 45 
Q 35.0625 48.390625 27.6875 48.390625 
Q 23 48.390625 18.546875 47.265625 
Q 14.109375 46.140625 10.015625 43.890625 
L 10.015625 52.203125 
Q 14.9375 54.109375 19.578125 55.046875 
Q 24.21875 56 28.609375 56 
Q 40.484375 56 46.34375 49.84375 
Q 52.203125 43.703125 52.203125 31.203125 
" id="BitstreamVeraSans-Roman-61"/>
      <path d="M 48.78125 52.59375 
L 48.78125 44.1875 
Q 44.96875 46.296875 41.140625 47.34375 
Q 37.3125 48.390625 33.40625 48.390625 
Q 24.65625 48.390625 19.8125 42.84375 
Q 14.984375 37.3125 14.984375 27.296875 
Q 14.984375 17.28125 19.8125 11.734375 
Q 24.65625 6.203125 33.40625 6.203125 
Q 37.3125 6.203125 41.140625 7.25 
Q 44.96875 8.296875 48.78125 10.40625 
L 48.78125 2.09375 
Q 45.015625 0.34375 40.984375 -0.53125 
Q 36.96875 -1.421875 32.421875 -1.421875 
Q 20.0625 -1.421875 12.78125 6.34375 
Q 5.515625 14.109375 5.515625 27.296875 
Q 5.515625 40.671875 12.859375 48.328125 
Q 20.21875 56 33.015625 56 
Q 37.15625 56 41.109375 55.140625 
Q 45.0625 54.296875 48.78125 52.59375 
" id="BitstreamVeraSans-Roman-63"/>
     </defs>
     <g transform="translate(63.0171875 258.1671875)rotate(-90.0)scale(0.1 -0.1)">
      <use xlink:href="#BitstreamVeraSans-Roman-52"/>
      <use x="69.419921875" xlink:href="#BitstreamVeraSans-Roman-65"/>
      <use x="130.943359375" xlink:href="#BitstreamVeraSans-Roman-6d"/>
      <use x="228.35546875" xlink:href="#BitstreamVeraSans-Roman-61"/>
      <use x="289.634765625" xlink:href="#BitstreamVeraSans-Roman-69"/>
      <use x="317.41796875" xlink:href="#BitstreamVeraSans-Roman-6e"/>
      <use x="380.796875" xlink:href="#BitstreamVeraSans-Roman-69"/>
      <use x="408.580078125" xlink:href="#BitstreamVeraSans-Roman-6e"/>
      <use x="471.958984375" xlink:href="#BitstreamVeraSans-Roman-67"/>
      <use x="535.435546875" xlink:href="#BitstreamVeraSans-Roman-20"/>
      <use x="567.22265625" xlink:href="#BitstreamVeraSans-Roman-66"/>
      <use x="602.427734375" xlink:href="#BitstreamVeraSans-Roman-72"/>
      <use x="643.541015625" xlink:href="#BitstreamVeraSans-Roman-61"/>
      <use x="704.8203125" xlink:href="#BitstreamVeraSans-Roman-63"/>
      <use x="759.80078125" xlink:href="#BitstreamVeraSans-Roman-74"/>
      <use x="799.009765625" xlink:href="#BitstreamVeraSans-Roman-69"/>
      <use x="826.79296875" xlink:href="#BitstreamVeraSans-Roman-6f"/>
      <use x="887.974609375" xlink:href="#BitstreamVeraSans-Roman-6e"/>
     </g>
    </g>
   </g>
   <g id="legend_1">
    <g id="patch_7">
     <path d="M 533.16 168 
L 642 168 
L 642 49.2 
L 533.16 49.2 
z
" style="fill:#ffffff;stroke:#000000;stroke-linejoin:miter;"/>
    </g>
    <g id="line2d_31">
     <path d="M 541.56 60 
L 558.36 60 
" style="fill:none;stroke:#0000ff;stroke-linecap:square;"/>
    </g>
    <g id="line2d_32"/>
    <g id="text_15">
     <!-- 0.1 $\mu m^2/s$ -->
     <defs>
      <path d="M 4.984375 0 
L 4.984375 2.6875 
Q 4.984375 2.9375 5.171875 3.21875 
L 20.703125 20.40625 
Q 24.21875 24.21875 26.40625 26.796875 
Q 28.609375 29.390625 30.75 32.765625 
Q 32.90625 36.140625 34.15625 39.625 
Q 35.40625 43.109375 35.40625 47.015625 
Q 35.40625 51.125 33.890625 54.859375 
Q 32.375 58.59375 29.375 60.84375 
Q 26.375 63.09375 22.125 63.09375 
Q 17.78125 63.09375 14.3125 60.46875 
Q 10.84375 57.859375 9.421875 53.71875 
Q 9.8125 53.8125 10.5 53.8125 
Q 12.75 53.8125 14.328125 52.296875 
Q 15.921875 50.78125 15.921875 48.390625 
Q 15.921875 46.09375 14.328125 44.5 
Q 12.75 42.921875 10.5 42.921875 
Q 8.15625 42.921875 6.5625 44.546875 
Q 4.984375 46.1875 4.984375 48.390625 
Q 4.984375 52.15625 6.390625 55.4375 
Q 7.8125 58.734375 10.46875 61.296875 
Q 13.140625 63.875 16.484375 65.234375 
Q 19.828125 66.609375 23.578125 66.609375 
Q 29.296875 66.609375 34.21875 64.1875 
Q 39.15625 61.765625 42.03125 57.34375 
Q 44.921875 52.9375 44.921875 47.015625 
Q 44.921875 42.671875 43.015625 38.765625 
Q 41.109375 34.859375 38.125 31.65625 
Q 35.15625 28.46875 30.515625 24.40625 
Q 25.875 20.359375 24.421875 19 
L 13.09375 8.109375 
L 22.703125 8.109375 
Q 29.78125 8.109375 34.546875 8.21875 
Q 39.3125 8.34375 39.59375 8.59375 
Q 40.765625 9.859375 42 17.828125 
L 44.921875 17.828125 
L 42.09375 0 
z
" id="Cmr10-32"/>
      <path d="M 5.609375 -23 
Q 5.609375 -22.703125 5.71875 -22.609375 
L 40.484375 73.78125 
Q 40.671875 74.359375 41.15625 74.671875 
Q 41.65625 75 42.28125 75 
Q 43.171875 75 43.71875 74.453125 
Q 44.28125 73.921875 44.28125 73 
L 44.28125 72.609375 
L 9.515625 -23.78125 
Q 8.9375 -25 7.625 -25 
Q 6.78125 -25 6.1875 -24.40625 
Q 5.609375 -23.828125 5.609375 -23 
" id="Cmmi10-3d"/>
      <path d="M 2.78125 -18.796875 
Q 2.78125 -18.21875 2.875 -18.015625 
L 17.578125 41.015625 
Q 18.015625 42.4375 19.15625 43.3125 
Q 20.3125 44.1875 21.78125 44.1875 
Q 23.046875 44.1875 23.921875 43.421875 
Q 24.8125 42.671875 24.8125 41.40625 
Q 24.8125 41.109375 24.78125 40.9375 
Q 24.75 40.765625 24.703125 40.578125 
L 18.796875 17.1875 
Q 17.828125 13.03125 17.828125 10.015625 
Q 17.828125 6.296875 19.578125 3.90625 
Q 21.34375 1.515625 24.90625 1.515625 
Q 32.171875 1.515625 37.703125 10.59375 
Q 37.75 10.6875 37.765625 10.734375 
Q 37.796875 10.796875 37.796875 10.890625 
L 45.015625 39.890625 
Q 45.359375 41.21875 46.578125 42.15625 
Q 47.796875 43.109375 49.21875 43.109375 
Q 50.390625 43.109375 51.296875 42.328125 
Q 52.203125 41.546875 52.203125 40.28125 
Q 52.203125 39.703125 52.09375 39.5 
L 44.921875 10.6875 
Q 44.1875 7.859375 44.1875 5.8125 
Q 44.1875 1.515625 47.125 1.515625 
Q 50.25 1.515625 51.828125 5.375 
Q 53.421875 9.234375 54.59375 14.703125 
Q 54.78125 15.28125 55.421875 15.28125 
L 56.59375 15.28125 
Q 56.984375 15.28125 57.25 14.96875 
Q 57.515625 14.65625 57.515625 14.3125 
Q 55.765625 7.328125 53.6875 3.09375 
Q 51.609375 -1.125 46.921875 -1.125 
Q 43.609375 -1.125 41.046875 0.78125 
Q 38.484375 2.6875 37.703125 5.90625 
Q 35.203125 2.78125 31.859375 0.828125 
Q 28.515625 -1.125 24.8125 -1.125 
Q 18.5625 -1.125 14.984375 1.8125 
L 9.90625 -18.40625 
Q 9.625 -19.828125 8.453125 -20.703125 
Q 7.28125 -21.578125 5.8125 -21.578125 
Q 4.59375 -21.578125 3.6875 -20.8125 
Q 2.78125 -20.0625 2.78125 -18.796875 
" id="Cmmi10-b9"/>
      <path d="M 7.71875 1.703125 
Q 7.71875 2.296875 7.8125 2.59375 
L 15.28125 32.421875 
Q 16.015625 35.203125 16.015625 37.3125 
Q 16.015625 41.609375 13.09375 41.609375 
Q 9.96875 41.609375 8.453125 37.859375 
Q 6.9375 34.125 5.515625 28.421875 
Q 5.515625 28.125 5.21875 27.953125 
Q 4.9375 27.78125 4.6875 27.78125 
L 3.515625 27.78125 
Q 3.171875 27.78125 2.921875 28.140625 
Q 2.6875 28.515625 2.6875 28.8125 
Q 3.765625 33.15625 4.765625 36.171875 
Q 5.765625 39.203125 7.890625 41.6875 
Q 10.015625 44.1875 13.1875 44.1875 
Q 16.9375 44.1875 19.8125 41.8125 
Q 22.703125 39.453125 22.703125 35.796875 
Q 25.6875 39.703125 29.6875 41.9375 
Q 33.6875 44.1875 38.1875 44.1875 
Q 42.921875 44.1875 46.359375 41.765625 
Q 49.8125 39.359375 49.8125 34.90625 
Q 52.875 39.265625 57 41.71875 
Q 61.140625 44.1875 66.015625 44.1875 
Q 71.1875 44.1875 74.328125 41.375 
Q 77.484375 38.578125 77.484375 33.40625 
Q 77.484375 29.296875 75.65625 23.484375 
Q 73.828125 17.671875 71.09375 10.5 
Q 69.671875 7.03125 69.671875 4.5 
Q 69.671875 1.515625 72.015625 1.515625 
Q 75.921875 1.515625 78.515625 5.703125 
Q 81.109375 9.90625 82.171875 14.703125 
Q 82.46875 15.28125 83.015625 15.28125 
L 84.1875 15.28125 
Q 84.578125 15.28125 84.84375 15.015625 
Q 85.109375 14.75 85.109375 14.40625 
Q 85.109375 14.3125 85.015625 14.109375 
Q 83.640625 8.453125 80.25 3.65625 
Q 76.859375 -1.125 71.78125 -1.125 
Q 68.265625 -1.125 65.765625 1.296875 
Q 63.28125 3.71875 63.28125 7.171875 
Q 63.28125 8.9375 64.109375 11.078125 
Q 66.9375 18.609375 68.8125 24.515625 
Q 70.703125 30.421875 70.703125 34.90625 
Q 70.703125 37.703125 69.578125 39.65625 
Q 68.453125 41.609375 65.828125 41.609375 
Q 60.359375 41.609375 56.34375 38.25 
Q 52.34375 34.90625 49.421875 29.390625 
Q 49.21875 28.421875 49.125 27.875 
L 42.671875 2.203125 
Q 42.328125 0.828125 41.125 -0.140625 
Q 39.9375 -1.125 38.484375 -1.125 
Q 37.3125 -1.125 36.40625 -0.34375 
Q 35.5 0.4375 35.5 1.703125 
Q 35.5 2.296875 35.59375 2.59375 
L 42 28.078125 
Q 43.015625 32.171875 43.015625 34.90625 
Q 43.015625 37.703125 41.859375 39.65625 
Q 40.71875 41.609375 37.984375 41.609375 
Q 34.328125 41.609375 31.25 39.984375 
Q 28.171875 38.375 25.875 35.71875 
Q 23.578125 33.0625 21.6875 29.390625 
L 14.890625 2.203125 
Q 14.546875 0.828125 13.34375 -0.140625 
Q 12.15625 -1.125 10.6875 -1.125 
Q 9.46875 -1.125 8.59375 -0.34375 
Q 7.71875 0.4375 7.71875 1.703125 
" id="Cmmi10-6d"/>
      <path d="M 8.6875 6.109375 
Q 11.375 1.515625 19.484375 1.515625 
Q 23 1.515625 26.171875 2.703125 
Q 29.34375 3.90625 31.421875 6.296875 
Q 33.5 8.6875 33.5 12.109375 
Q 33.5 14.703125 31.640625 16.359375 
Q 29.78125 18.015625 27.09375 18.609375 
L 21.6875 19.671875 
Q 17.96875 20.609375 15.578125 23.140625 
Q 13.1875 25.6875 13.1875 29.296875 
Q 13.1875 33.734375 15.59375 37.15625 
Q 18.015625 40.578125 21.96875 42.375 
Q 25.921875 44.1875 30.171875 44.1875 
Q 34.71875 44.1875 38.296875 42.015625 
Q 41.890625 39.84375 41.890625 35.59375 
Q 41.890625 33.296875 40.59375 31.53125 
Q 39.3125 29.78125 37.015625 29.78125 
Q 35.6875 29.78125 34.734375 30.640625 
Q 33.796875 31.5 33.796875 32.8125 
Q 33.796875 33.984375 34.453125 35.078125 
Q 35.109375 36.1875 36.203125 36.84375 
Q 37.3125 37.5 38.484375 37.5 
Q 37.59375 39.65625 35.171875 40.625 
Q 32.765625 41.609375 29.984375 41.609375 
Q 27.4375 41.609375 24.890625 40.578125 
Q 22.359375 39.546875 20.8125 37.5625 
Q 19.28125 35.59375 19.28125 32.90625 
Q 19.28125 31.109375 20.546875 29.734375 
Q 21.828125 28.375 23.6875 27.78125 
L 29.5 26.609375 
Q 32.28125 26.03125 34.59375 24.53125 
Q 36.921875 23.046875 38.25 20.765625 
Q 39.59375 18.5 39.59375 15.578125 
Q 39.59375 11.859375 37.515625 8.25 
Q 35.453125 4.640625 32.421875 2.484375 
Q 27.09375 -1.125 19.390625 -1.125 
Q 14.0625 -1.125 9.609375 1.3125 
Q 5.171875 3.765625 5.171875 8.59375 
Q 5.171875 11.328125 6.75 13.34375 
Q 8.34375 15.375 11.078125 15.375 
Q 12.703125 15.375 13.796875 14.390625 
Q 14.890625 13.421875 14.890625 11.8125 
Q 14.890625 9.515625 13.171875 7.8125 
Q 11.46875 6.109375 9.1875 6.109375 
z
" id="Cmmi10-73"/>
     </defs>
     <g transform="translate(571.56 64.2)scale(0.12 -0.12)">
      <use transform="translate(0.0 0.109375)" xlink:href="#BitstreamVeraSans-Roman-30"/>
      <use transform="translate(63.623046875 0.109375)" xlink:href="#BitstreamVeraSans-Roman-2e"/>
      <use transform="translate(95.41015625 0.109375)" xlink:href="#BitstreamVeraSans-Roman-31"/>
      <use transform="translate(159.033203125 0.109375)" xlink:href="#BitstreamVeraSans-Roman-20"/>
      <use transform="translate(190.8203125 0.109375)" xlink:href="#Cmmi10-b9"/>
      <use transform="translate(251.025390625 0.109375)" xlink:href="#Cmmi10-6d"/>
      <use transform="translate(345.121640625 38.3734375)scale(0.7)" xlink:href="#Cmr10-32"/>
      <use transform="translate(386.498984375 0.109375)" xlink:href="#Cmmi10-3d"/>
      <use transform="translate(436.498984375 0.109375)" xlink:href="#Cmmi10-73"/>
     </g>
    </g>
    <g id="line2d_33">
     <path d="M 541.56 79.2 
L 558.36 79.2 
" style="fill:none;stroke:#008000;stroke-linecap:square;"/>
    </g>
    <g id="line2d_34"/>
    <g id="text_16">
     <!-- 0.5 $\mu m^2/s$ -->
     <defs>
      <path d="M 10.796875 72.90625 
L 49.515625 72.90625 
L 49.515625 64.59375 
L 19.828125 64.59375 
L 19.828125 46.734375 
Q 21.96875 47.46875 24.109375 47.828125 
Q 26.265625 48.1875 28.421875 48.1875 
Q 40.625 48.1875 47.75 41.5 
Q 54.890625 34.8125 54.890625 23.390625 
Q 54.890625 11.625 47.5625 5.09375 
Q 40.234375 -1.421875 26.90625 -1.421875 
Q 22.3125 -1.421875 17.546875 -0.640625 
Q 12.796875 0.140625 7.71875 1.703125 
L 7.71875 11.625 
Q 12.109375 9.234375 16.796875 8.0625 
Q 21.484375 6.890625 26.703125 6.890625 
Q 35.15625 6.890625 40.078125 11.328125 
Q 45.015625 15.765625 45.015625 23.390625 
Q 45.015625 31 40.078125 35.4375 
Q 35.15625 39.890625 26.703125 39.890625 
Q 22.75 39.890625 18.8125 39.015625 
Q 14.890625 38.140625 10.796875 36.28125 
z
" id="BitstreamVeraSans-Roman-35"/>
     </defs>
     <g transform="translate(571.56 83.4)scale(0.12 -0.12)">
      <use transform="translate(0.0 0.109375)" xlink:href="#BitstreamVeraSans-Roman-30"/>
      <use transform="translate(63.623046875 0.109375)" xlink:href="#BitstreamVeraSans-Roman-2e"/>
      <use transform="translate(95.41015625 0.109375)" xlink:href="#BitstreamVeraSans-Roman-35"/>
      <use transform="translate(159.033203125 0.109375)" xlink:href="#BitstreamVeraSans-Roman-20"/>
      <use transform="translate(190.8203125 0.109375)" xlink:href="#Cmmi10-b9"/>
      <use transform="translate(251.025390625 0.109375)" xlink:href="#Cmmi10-6d"/>
      <use transform="translate(345.121640625 38.3734375)scale(0.7)" xlink:href="#Cmr10-32"/>
      <use transform="translate(386.498984375 0.109375)" xlink:href="#Cmmi10-3d"/>
      <use transform="translate(436.498984375 0.109375)" xlink:href="#Cmmi10-73"/>
     </g>
    </g>
    <g id="line2d_35">
     <path d="M 541.56 98.4 
L 558.36 98.4 
" style="fill:none;stroke:#ff0000;stroke-linecap:square;"/>
    </g>
    <g id="line2d_36"/>
    <g id="text_17">
     <!-- 1.0 $\mu m^2/s$ -->
     <g transform="translate(571.56 102.6)scale(0.12 -0.12)">
      <use transform="translate(0.0 0.109375)" xlink:href="#BitstreamVeraSans-Roman-31"/>
      <use transform="translate(63.623046875 0.109375)" xlink:href="#BitstreamVeraSans-Roman-2e"/>
      <use transform="translate(95.41015625 0.109375)" xlink:href="#BitstreamVeraSans-Roman-30"/>
      <use transform="translate(159.033203125 0.109375)" xlink:href="#BitstreamVeraSans-Roman-20"/>
      <use transform="translate(190.8203125 0.109375)" xlink:href="#Cmmi10-b9"/>
      <use transform="translate(251.025390625 0.109375)" xlink:href="#Cmmi10-6d"/>
      <use transform="translate(345.121640625 38.3734375)scale(0.7)" xlink:href="#Cmr10-32"/>
      <use transform="translate(386.498984375 0.109375)" xlink:href="#Cmmi10-3d"/>
      <use transform="translate(436.498984375 0.109375)" xlink:href="#Cmmi10-73"/>
     </g>
    </g>
    <g id="line2d_37">
     <path d="M 541.56 117.6 
L 558.36 117.6 
" style="fill:none;stroke:#00bfbf;stroke-linecap:square;"/>
    </g>
    <g id="line2d_38"/>
    <g id="text_18">
     <!-- 2.5 $\mu m^2/s$ -->
     <g transform="translate(571.56 121.8)scale(0.12 -0.12)">
      <use transform="translate(0.0 0.109375)" xlink:href="#BitstreamVeraSans-Roman-32"/>
      <use transform="translate(63.623046875 0.109375)" xlink:href="#BitstreamVeraSans-Roman-2e"/>
      <use transform="translate(95.41015625 0.109375)" xlink:href="#BitstreamVeraSans-Roman-35"/>
      <use transform="translate(159.033203125 0.109375)" xlink:href="#BitstreamVeraSans-Roman-20"/>
      <use transform="translate(190.8203125 0.109375)" xlink:href="#Cmmi10-b9"/>
      <use transform="translate(251.025390625 0.109375)" xlink:href="#Cmmi10-6d"/>
      <use transform="translate(345.121640625 38.3734375)scale(0.7)" xlink:href="#Cmr10-32"/>
      <use transform="translate(386.498984375 0.109375)" xlink:href="#Cmmi10-3d"/>
      <use transform="translate(436.498984375 0.109375)" xlink:href="#Cmmi10-73"/>
     </g>
    </g>
    <g id="line2d_39">
     <path d="M 541.56 136.8 
L 558.36 136.8 
" style="fill:none;stroke:#bf00bf;stroke-linecap:square;"/>
    </g>
    <g id="line2d_40"/>
    <g id="text_19">
     <!-- 5.0 $\mu m^2/s$ -->
     <g transform="translate(571.56 141.0)scale(0.12 -0.12)">
      <use transform="translate(0.0 0.109375)" xlink:href="#BitstreamVeraSans-Roman-35"/>
      <use transform="translate(63.623046875 0.109375)" xlink:href="#BitstreamVeraSans-Roman-2e"/>
      <use transform="translate(95.41015625 0.109375)" xlink:href="#BitstreamVeraSans-Roman-30"/>
      <use transform="translate(159.033203125 0.109375)" xlink:href="#BitstreamVeraSans-Roman-20"/>
      <use transform="translate(190.8203125 0.109375)" xlink:href="#Cmmi10-b9"/>
      <use transform="translate(251.025390625 0.109375)" xlink:href="#Cmmi10-6d"/>
      <use transform="translate(345.121640625 38.3734375)scale(0.7)" xlink:href="#Cmr10-32"/>
      <use transform="translate(386.498984375 0.109375)" xlink:href="#Cmmi10-3d"/>
      <use transform="translate(436.498984375 0.109375)" xlink:href="#Cmmi10-73"/>
     </g>
    </g>
    <g id="line2d_41">
     <path d="M 541.56 156 
L 558.36 156 
" style="fill:none;stroke:#bfbf00;stroke-linecap:square;"/>
    </g>
    <g id="line2d_42"/>
    <g id="text_20">
     <!-- 10.0 $\mu m^2/s$ -->
     <g transform="translate(571.56 160.2)scale(0.12 -0.12)">
      <use transform="translate(0.0 0.109375)" xlink:href="#BitstreamVeraSans-Roman-31"/>
      <use transform="translate(63.623046875 0.109375)" xlink:href="#BitstreamVeraSans-Roman-30"/>
      <use transform="translate(127.24609375 0.109375)" xlink:href="#BitstreamVeraSans-Roman-2e"/>
      <use transform="translate(159.033203125 0.109375)" xlink:href="#BitstreamVeraSans-Roman-30"/>
      <use transform="translate(222.65625 0.109375)" xlink:href="#BitstreamVeraSans-Roman-20"/>
      <use transform="translate(254.443359375 0.109375)" xlink:href="#Cmmi10-b9"/>
      <use transform="translate(314.6484375 0.109375)" xlink:href="#Cmmi10-6d"/>
      <use transform="translate(408.7446875 38.3734375)scale(0.7)" xlink:href="#Cmr10-32"/>
      <use transform="translate(450.12203125 0.109375)" xlink:href="#Cmmi10-3d"/>
      <use transform="translate(500.12203125 0.109375)" xlink:href="#Cmmi10-73"/>
     </g>
    </g>
   </g>
  </g>
 </g>
 <defs>
  <clipPath id="pce77e2be59">
   <rect height="334.8" width="558.0" x="90.0" y="43.2"/>
  </clipPath>
 </defs>
</svg>
